<?xml version="1.0" encoding="UTF-8" standalone="no"?>
<svg
   xmlns:osb="http://www.openswatchbook.org/uri/2009/osb"
   xmlns:dc="http://purl.org/dc/elements/1.1/"
   xmlns:cc="http://creativecommons.org/ns#"
   xmlns:rdf="http://www.w3.org/1999/02/22-rdf-syntax-ns#"
   xmlns:svg="http://www.w3.org/2000/svg"
   xmlns="http://www.w3.org/2000/svg"
   xmlns:xlink="http://www.w3.org/1999/xlink"
   xmlns:sodipodi="http://sodipodi.sourceforge.net/DTD/sodipodi-0.dtd"
   xmlns:inkscape="http://www.inkscape.org/namespaces/inkscape"
   sodipodi:docname="logo.svg"
   inkscape:version="1.0 (1.0+r73+1)"
   id="svg8"
   version="1.1"
   viewBox="0 0 32.576038 12.068113"
   height="12.068113mm"
   width="32.576038mm"
   inkscape:export-filename="/home/evgeniy/Projects/fizuha/logo.png"
   inkscape:export-xdpi="720"
   inkscape:export-ydpi="720">
  <defs
     id="defs2">
    <linearGradient
       id="linearGradient874"
       inkscape:collect="always">
      <stop
         style="stop-color:#c0d725;stop-opacity:1"
         offset="0"
         id="stop870" />
      <stop
         id="stop872"
         offset="1"
         style="stop-color:#7fc844;stop-opacity:1" />
    </linearGradient>
    <linearGradient
       inkscape:collect="always"
       id="linearGradient897">
      <stop
         id="stop901"
         offset="0"
         style="stop-color:#dc793e;stop-opacity:1" />
      <stop
         style="stop-color:#a32857;stop-opacity:1"
         offset="1"
         id="stop895" />
    </linearGradient>
    <inkscape:path-effect
       effect="powerclip"
       id="path-effect2951"
       is_visible="true"
       lpeversion="1"
       inverse="true"
       flatten="false"
       hide_clip="false"
       message="Use fill-rule evenodd on &lt;b&gt;fill and stroke&lt;/b&gt; dialog if no flatten result after convert clip to paths." />
    <linearGradient
       id="linearGradient907"
       osb:paint="solid">
      <stop
         style="stop-color:#ffffff;stop-opacity:1;"
         offset="0"
         id="stop905" />
    </linearGradient>
    <inkscape:path-effect
       effect="powerclip"
       id="path-effect883"
       is_visible="true"
       lpeversion="1"
       inverse="true"
       flatten="false"
       hide_clip="false"
       message="Use fill-rule evenodd on &lt;b&gt;fill and stroke&lt;/b&gt; dialog if no flatten result after convert clip to paths." />
    <linearGradient
       osb:paint="solid"
       id="linearGradient943">
      <stop
         id="stop941"
         offset="0"
         style="stop-color:#ffffff;stop-opacity:1;" />
    </linearGradient>
    <clipPath
       clipPathUnits="userSpaceOnUse"
       id="clipPath879">
      <rect
         style="display:none;fill:#278040;fill-opacity:1;stroke:#278040;stroke-width:0.264999;stroke-linejoin:round;stroke-miterlimit:4;stroke-dasharray:none;stroke-opacity:1"
         id="rect881"
         width="3.9015477"
         height="7.7401171"
         x="42.508595"
         y="89.258247"
         transform="rotate(-5.9926392)"
         d="m 42.508595,89.258247 h 3.901547 v 7.740117 h -3.901547 z" />
    </clipPath>
    <clipPath
       clipPathUnits="userSpaceOnUse"
       id="clipPath2947">
      <rect
         style="display:none;fill:#278040;fill-opacity:1;stroke:none;stroke-width:1;stroke-linejoin:round;stroke-miterlimit:4;stroke-dasharray:none;stroke-opacity:0.7;paint-order:fill markers stroke"
         id="rect2949"
         width="2.5211091"
         height="3.5345209"
         x="42.022106"
         y="88.806541"
         transform="rotate(-6.7307288)"
         d="m 42.022106,88.806541 h 2.521109 v 3.534521 h -2.521109 z" />
    </clipPath>
    <clipPath
       clipPathUnits="userSpaceOnUse"
       id="clipPath2973">
      <rect
         style="fill:#278040;fill-opacity:1;stroke:none;stroke-width:11.1842;stroke-linejoin:round;stroke-miterlimit:4;stroke-dasharray:none;stroke-opacity:0.7;paint-order:fill markers stroke"
         id="rect2975"
         width="34.171108"
         height="38.670975"
         x="45.231884"
         y="83.712212"
         transform="matrix(0.99483717,-0.10148404,0.11663378,0.99317499,0,0)" />
    </clipPath>
    <radialGradient
       inkscape:collect="always"
       xlink:href="#linearGradient874"
       id="radialGradient899"
       cx="69.776588"
       cy="81.920349"
       fx="69.776588"
       fy="81.920349"
       r="16.265049"
       gradientTransform="matrix(1.02675,-0.22246155,-0.16168006,1.1940838,11.37836,-0.37680677)"
       gradientUnits="userSpaceOnUse" />
    <radialGradient
       gradientUnits="userSpaceOnUse"
       gradientTransform="matrix(0.95332731,-0.10197861,-0.233222,1.1518146,22.362288,-5.3209856)"
       r="16.265049"
       fy="81.920349"
       fx="69.776588"
       cy="81.920349"
       cx="69.776588"
       id="radialGradient915"
       xlink:href="#linearGradient897"
       inkscape:collect="always" />
    <radialGradient
       gradientUnits="userSpaceOnUse"
       gradientTransform="matrix(0.95332731,-0.10197861,-0.233222,1.1518146,22.362288,-5.3209856)"
       r="16.265049"
       fy="81.920349"
       fx="69.776588"
       cy="81.920349"
       cx="69.776588"
       id="radialGradient923"
       xlink:href="#linearGradient897"
       inkscape:collect="always" />
    <radialGradient
       gradientUnits="userSpaceOnUse"
       gradientTransform="matrix(0.95332731,-0.10197861,-0.233222,1.1518146,22.362288,-5.3209856)"
       r="16.265049"
       fy="81.920349"
       fx="69.776588"
       cy="81.920349"
       cx="69.776588"
       id="radialGradient931"
       xlink:href="#linearGradient897"
       inkscape:collect="always" />
    <radialGradient
       gradientUnits="userSpaceOnUse"
       gradientTransform="matrix(0.95332731,-0.10197861,-0.233222,1.1518146,22.362288,-5.3209856)"
       r="16.265049"
       fy="81.920349"
       fx="69.776588"
       cy="81.920349"
       cx="69.776588"
       id="radialGradient939"
       xlink:href="#linearGradient897"
       inkscape:collect="always" />
    <radialGradient
       gradientUnits="userSpaceOnUse"
       gradientTransform="matrix(0.95332731,-0.10197861,-0.233222,1.1518146,22.362288,-5.3209856)"
       r="16.265049"
       fy="81.920349"
       fx="69.776588"
       cy="81.920349"
       cx="69.776588"
       id="radialGradient947"
       xlink:href="#linearGradient897"
       inkscape:collect="always" />
    <radialGradient
       gradientUnits="userSpaceOnUse"
       gradientTransform="matrix(0.95332731,-0.10197861,-0.233222,1.1518146,22.362288,-5.3209856)"
       r="16.265049"
       fy="81.920349"
       fx="69.776588"
       cy="81.920349"
       cx="69.776588"
       id="radialGradient955"
       xlink:href="#linearGradient897"
       inkscape:collect="always" />
    <radialGradient
       inkscape:collect="always"
       xlink:href="#linearGradient874"
       id="radialGradient869"
       gradientUnits="userSpaceOnUse"
       gradientTransform="matrix(1.02675,-0.22246155,-0.16168006,1.1940838,11.37836,-0.37680677)"
       cx="69.776588"
       cy="81.920349"
       fx="69.776588"
       fy="81.920349"
       r="16.265049" />
    <radialGradient
       inkscape:collect="always"
       xlink:href="#linearGradient874"
       id="radialGradient871"
       gradientUnits="userSpaceOnUse"
       gradientTransform="matrix(1.02675,-0.22246155,-0.16168006,1.1940838,11.37836,-0.37680677)"
       cx="69.776588"
       cy="81.920349"
       fx="69.776588"
       fy="81.920349"
       r="16.265049" />
    <radialGradient
       inkscape:collect="always"
       xlink:href="#linearGradient874"
       id="radialGradient873"
       gradientUnits="userSpaceOnUse"
       gradientTransform="matrix(1.02675,-0.22246155,-0.16168006,1.1940838,11.37836,-0.37680677)"
       cx="69.776588"
       cy="81.920349"
       fx="69.776588"
       fy="81.920349"
       r="16.265049" />
    <radialGradient
       inkscape:collect="always"
       xlink:href="#linearGradient874"
       id="radialGradient875"
       gradientUnits="userSpaceOnUse"
       gradientTransform="matrix(1.02675,-0.22246155,-0.16168006,1.1940838,11.37836,-0.37680677)"
       cx="69.776588"
       cy="81.920349"
       fx="69.776588"
       fy="81.920349"
       r="16.265049" />
    <radialGradient
       inkscape:collect="always"
       xlink:href="#linearGradient874"
       id="radialGradient877"
       gradientUnits="userSpaceOnUse"
       gradientTransform="matrix(1.02675,-0.22246155,-0.16168006,1.1940838,11.37836,-0.37680677)"
       cx="69.776588"
       cy="81.920349"
       fx="69.776588"
       fy="81.920349"
       r="16.265049" />
    <radialGradient
       inkscape:collect="always"
       xlink:href="#linearGradient874"
       id="radialGradient879"
       gradientUnits="userSpaceOnUse"
       gradientTransform="matrix(1.02675,-0.22246155,-0.16168006,1.1940838,11.37836,-0.37680677)"
       cx="69.776588"
       cy="81.920349"
       fx="69.776588"
       fy="81.920349"
       r="16.265049" />
  </defs>
  <sodipodi:namedview
     showguides="false"
     inkscape:snap-nodes="false"
     inkscape:window-maximized="1"
     inkscape:window-y="33"
     inkscape:window-x="72"
     inkscape:window-height="1010"
     inkscape:window-width="1848"
     showgrid="false"
     inkscape:document-rotation="0"
     inkscape:current-layer="layer1"
     inkscape:document-units="mm"
     inkscape:cy="25.475504"
     inkscape:cx="46.766552"
     inkscape:zoom="5.1343305"
     inkscape:pageshadow="2"
     inkscape:pageopacity="1"
     borderopacity="1.0"
     bordercolor="#666666"
     pagecolor="#ffffff"
     id="base" />
  <metadata
     id="metadata5">
    <rdf:RDF>
      <cc:Work
         rdf:about="">
        <dc:format>image/svg+xml</dc:format>
        <dc:type
           rdf:resource="http://purl.org/dc/dcmitype/StillImage" />
        <dc:title />
      </cc:Work>
    </rdf:RDF>
  </metadata>
  <g
     style="display:inline"
     id="layer1"
     inkscape:groupmode="layer"
     inkscape:label="Text"
     transform="translate(-54.297233,-91.337994)">
    <g
       style="-inkscape-font-specification:Keraleeyam;display:inline;fill:none;fill-opacity:1;font-family:Keraleeyam;font-size:12.3472px;font-stretch:normal;font-style:normal;font-variant:normal;font-weight:normal;letter-spacing:-0.264583px;line-height:0;paint-order:fill markers stroke;stroke:url(#radialGradient899);stroke-dasharray:none;stroke-miterlimit:4;stroke-opacity:1;stroke-width:1.99999964853;word-spacing:0px"
       id="text40-6"
       aria-label="Fizuha">
      <path
         id="path2861-1"
         style="-inkscape-font-specification:Dyuthi;fill:none;fill-opacity:1;font-family:Dyuthi;font-size:12.7px;font-stretch:normal;font-style:normal;font-variant:normal;font-weight:normal;paint-order:fill markers stroke;stroke:url(#radialGradient869);stroke-dasharray:none;stroke-miterlimit:4;stroke-opacity:1;stroke-width:1.99999964853"
         d="M 57.097 98.9254 L 57.097 101.387 C 57.097 101.636 57.0107 101.859 56.8381 102.055 C 56.6656 102.252 56.4529 102.365 56.2001 102.394 L 56.1881 102.395 C 55.9433 102.423 55.7346 102.359 55.5621 102.202 C 55.3855 102.046 55.2972 101.844 55.2972 101.595 L 55.2972 96.003 C 55.2972 95.698 55.4076 95.4225 55.6283 95.1763 C 55.849 94.9301 56.1118 94.7895 56.4168 94.7543 L 59.4264 94.4071 C 59.6472 94.3817 59.8237 94.4456 59.9561 94.5989 C 60.0444 94.697 60.0886 94.8324 60.0886 95.0049 L 60.0886 95.2638 C 60.0886 95.3882 60.0143 95.5171 59.8659 95.6506 C 59.7174 95.7841 59.5709 95.8552 59.4264 95.8638 L 57.097 96.0241 L 57.097 97.7697 L 59.4505 97.3899 C 59.6271 97.3615 59.7836 97.4097 59.92 97.5344 C 60.0565 97.6591 60.1267 97.8115 60.1307 97.9917 L 60.1307 98.0037 C 60.1307 98.1923 60.0585 98.3632 59.914 98.5163 C 59.7695 98.6694 59.615 98.7514 59.4505 98.7623 Z" />
      <path
         id="path2863-1"
         style="-inkscape-font-specification:Dyuthi;fill:none;fill-opacity:1;font-family:Dyuthi;font-size:12.7px;font-stretch:normal;font-style:normal;font-variant:normal;font-weight:normal;paint-order:fill markers stroke;stroke:url(#radialGradient871);stroke-dasharray:none;stroke-miterlimit:4;stroke-opacity:1;stroke-width:1.99999964853"
         d="M 61.487 101.736 C 61.2383 101.764 61.0256 101.703 60.849 101.55 C 60.6765 101.394 60.5902 101.191 60.5902 100.942 L 60.5902 97.3909 C 60.5902 97.1421 60.6785 96.9192 60.855 96.7223 C 61.0356 96.5249 61.2463 96.4123 61.487 96.3846 L 61.4991 96.3832 C 61.7399 96.3554 61.9485 96.4196 62.1251 96.5758 C 62.3017 96.732 62.3899 96.9345 62.3899 97.1833 L 62.3899 100.735 C 62.3899 100.984 62.3017 101.206 62.1251 101.403 C 61.9485 101.6 61.7399 101.711 61.4991 101.734 Z M 62.3177 94.8622 C 62.3177 95.123 62.2254 95.3544 62.0408 95.5562 C 61.8602 95.7577 61.6436 95.8729 61.3907 95.9021 C 61.1339 95.9317 60.9172 95.8664 60.7407 95.7062 C 60.5641 95.546 60.4738 95.3357 60.4698 95.0753 C 60.4698 94.8145 60.5601 94.5854 60.7407 94.388 C 60.9172 94.187 61.1339 94.0738 61.3907 94.0482 C 61.6395 94.0195 61.8562 94.0807 62.0408 94.232 C 62.2254 94.3873 62.3177 94.5973 62.3177 94.8622 Z" />
      <path
         id="path2865-5"
         style="-inkscape-font-specification:Dyuthi;fill:none;fill-opacity:1;font-family:Dyuthi;font-size:12.7px;font-stretch:normal;font-style:normal;font-variant:normal;font-weight:normal;paint-order:fill markers stroke;stroke:url(#radialGradient873);stroke-dasharray:none;stroke-miterlimit:4;stroke-opacity:1;stroke-width:1.99999964853"
         d="M 65.0645 100.029 L 66.8462 99.8234 C 67.2836 99.773 67.5104 99.8933 67.5264 100.184 L 67.5384 100.418 C 67.5465 100.613 67.5043 100.773 67.412 100.896 C 67.3197 101.015 67.1352 101.088 66.8583 101.116 L 63.5055 101.503 C 63.333 101.523 63.1845 101.478 63.0601 101.368 C 62.9357 101.254 62.8755 101.122 62.8795 100.973 C 62.8795 100.825 62.9237 100.683 63.0119 100.549 L 65.3414 97.0295 L 63.662 97.2232 C 63.3731 97.2565 63.1745 97.137 63.0661 96.8646 L 63.0661 96.8405 C 62.9939 96.6401 63.02 96.4465 63.1444 96.2596 C 63.2688 96.0687 63.4413 95.9605 63.662 95.9351 L 66.8101 95.572 C 66.9867 95.5516 67.1412 95.6 67.2736 95.7171 C 67.398 95.8352 67.4602 95.9745 67.4602 96.135 C 67.4602 96.2955 67.4161 96.4431 67.3278 96.5777 Z" />
      <path
         id="path2867-9"
         style="-inkscape-font-specification:Dyuthi;fill:none;fill-opacity:1;font-family:Dyuthi;font-size:12.7px;font-stretch:normal;font-style:normal;font-variant:normal;font-weight:normal;paint-order:fill markers stroke;stroke:url(#radialGradient875);stroke-dasharray:none;stroke-miterlimit:4;stroke-opacity:1;stroke-width:1.99999964853"
         d="M 68.022 98.3455 C 68.022 98.3455 68.022 97.6172 68.022 96.1605 C 68.022 95.9759 68.1023 95.7941 68.2628 95.6151 C 68.3751 95.4898 68.5738 95.4127 68.8587 95.3838 L 68.8767 95.3818 C 69.1616 95.3489 69.3603 95.3802 69.4726 95.4755 C 69.6332 95.6175 69.7134 95.7808 69.7134 95.9654 L 69.7134 98.2708 C 69.7134 98.8126 69.89 99.1473 70.2431 99.2751 C 70.6685 99.4348 71.0557 99.3881 71.4048 99.1351 C 71.754 98.8862 71.9365 98.6023 71.9526 98.2834 L 71.9526 95.7854 C 71.9526 95.5487 72.0369 95.3403 72.2054 95.1603 C 72.3218 95.0346 72.5244 94.957 72.8134 94.9277 L 72.8314 94.9256 C 73.1163 94.8928 73.315 94.924 73.4273 95.0194 C 73.5878 95.1614 73.6681 95.3508 73.6681 95.5875 L 73.6681 99.8011 C 73.6681 99.9495 73.6159 100.084 73.5116 100.204 C 73.4113 100.324 73.2809 100.393 73.1203 100.412 L 72.4823 100.486 C 72.3378 100.502 72.2094 100.459 72.0971 100.355 C 71.9847 100.248 71.9305 100.13 71.9345 100.001 C 70.4939 101.018 69.4024 101.1 68.66 100.246 C 68.2347 99.7536 68.022 99.12 68.022 98.3455 Z" />
      <path
         id="path2869-8"
         style="-inkscape-font-specification:Dyuthi;fill:none;fill-opacity:1;font-family:Dyuthi;font-size:12.7px;font-stretch:normal;font-style:normal;font-variant:normal;font-weight:normal;paint-order:fill markers stroke;stroke:url(#radialGradient877);stroke-dasharray:none;stroke-miterlimit:4;stroke-opacity:1;stroke-width:1.99999964853"
         d="M 79.8038 96.8722 C 79.8038 96.8722 79.8078 97.5239 79.8158 98.8271 C 79.8158 99.0599 79.7315 99.2682 79.563 99.4522 C 79.4025 99.6312 79.2038 99.7344 78.9671 99.7617 L 78.949 99.7638 C 78.7163 99.7906 78.5177 99.7333 78.3531 99.5917 C 78.1926 99.4497 78.1124 99.2604 78.1124 99.0236 L 78.1124 96.7303 C 78.1124 96.1163 77.9338 95.7416 77.5766 95.6062 C 77.2195 95.4749 76.8463 95.552 76.457 95.8377 C 76.0638 96.1198 75.8692 96.4111 75.8732 96.7116 L 75.8732 99.2698 C 75.8732 99.5106 75.7889 99.723 75.6204 99.9069 C 75.4518 100.087 75.2492 100.191 75.0124 100.218 L 75.0064 100.219 C 74.7656 100.246 74.563 100.189 74.3984 100.048 C 74.2379 99.9059 74.1577 99.7125 74.1577 99.4677 L 74.1577 93.2979 C 74.1577 93.0652 74.2379 92.8533 74.3984 92.6622 C 74.575 92.4813 74.7797 92.3775 75.0124 92.3506 L 75.0245 92.3492 C 75.2572 92.3224 75.4598 92.3793 75.6324 92.5199 C 75.7929 92.6619 75.8732 92.8513 75.8732 93.088 L 75.8912 95.2168 C 76.3407 94.7677 76.766 94.4979 77.1673 94.4075 C 78.0782 94.2061 78.7464 94.3517 79.1717 94.8444 C 79.5931 95.3375 79.8038 96.0135 79.8038 96.8722 Z" />
      <path
         id="path2871-4"
         style="-inkscape-font-specification:Dyuthi;fill:none;fill-opacity:1;font-family:Dyuthi;font-size:12.7px;font-stretch:normal;font-style:normal;font-variant:normal;font-weight:normal;paint-order:fill markers stroke;stroke:url(#radialGradient879);stroke-dasharray:none;stroke-miterlimit:4;stroke-opacity:1;stroke-width:1.99999964853"
         d="M 81.8704 96.4954 C 81.8704 96.4954 81.8704 96.6279 81.8704 96.8927 C 81.8704 97.31 81.9808 97.6525 82.2015 97.9199 C 82.4222 98.1874 82.689 98.2991 83.002 98.255 C 83.1866 98.2537 83.3732 98.2142 83.5618 98.1362 C 83.943 97.9598 84.1337 97.6489 84.1337 97.2035 C 84.1337 97.2035 84.1337 96.5253 84.1337 95.169 C 84.0614 94.9486 83.8528 94.7941 83.5076 94.7055 C 83.1625 94.6128 82.8034 94.6763 82.4302 94.8959 C 82.057 95.1115 81.8704 95.6447 81.8704 96.4954 Z M 80.9916 98.6735 C 80.4779 98.191 80.2211 97.5665 80.2211 96.8 C 80.2211 96.0296 80.4779 95.3438 80.9916 94.7429 C 81.5052 94.1419 82.1272 93.7993 82.8576 93.715 C 83.4715 93.6442 83.8969 93.866 84.1337 94.3804 C 84.1337 94.2039 84.1999 94.0417 84.3323 93.894 C 84.4487 93.7642 84.5951 93.6892 84.7717 93.6688 L 85.2352 93.6153 C 85.4118 93.595 85.5622 93.6358 85.6866 93.7378 C 85.811 93.8559 85.8732 94.0032 85.8732 94.1798 L 85.8732 98.5739 C 85.8732 98.6782 85.8371 98.7667 85.7649 98.8392 C 85.6967 98.9113 85.6144 98.9529 85.5181 98.964 L 84.7958 99.0473 C 84.6914 99.0593 84.5711 99.001 84.4346 98.8722 C 84.2982 98.7435 84.1758 98.6774 84.0674 98.6738 C 83.9591 98.6703 83.8568 98.7061 83.7605 98.7815 C 83.3632 99.0841 83.0622 99.2472 82.8576 99.2708 C 82.1272 99.3551 81.5052 99.1559 80.9916 98.6734 Z" />
    </g>
    <g
       aria-label="Fizuha"
       id="text40"
       style="-inkscape-font-specification:Keraleeyam;display:inline;fill:#ffffff;fill-opacity:0.988235;font-family:Keraleeyam;font-size:12.3472px;font-stretch:normal;font-style:normal;font-variant:normal;font-weight:normal;letter-spacing:-0.264583px;line-height:0;paint-order:fill markers stroke;stroke:none;stroke-dasharray:none;stroke-miterlimit:4;stroke-opacity:1;stroke-width:0.1941342;word-spacing:0px">
      <path
         d="M 57.1052 98.9132 L 57.1052 101.375 C 57.1052 101.624 57.0189 101.847 56.8463 102.043 C 56.6738 102.24 56.4611 102.352 56.2083 102.381 L 56.1963 102.383 C 55.9515 102.411 55.7428 102.347 55.5703 102.19 C 55.3937 102.034 55.3054 101.832 55.3054 101.583 L 55.3054 95.9908 C 55.3054 95.6858 55.4158 95.4103 55.6365 95.1641 C 55.8572 94.9179 56.12 94.7773 56.425 94.7421 L 59.4346 94.3949 C 59.6554 94.3695 59.8319 94.4334 59.9643 94.5867 C 60.0526 94.6848 60.0968 94.8202 60.0968 94.9927 L 60.0968 95.2516 C 60.0968 95.376 60.0225 95.5049 59.8741 95.6384 C 59.7256 95.7719 59.5791 95.843 59.4346 95.8516 L 57.1052 96.0119 L 57.1052 97.7575 L 59.4587 97.3777 C 59.6353 97.3493 59.7918 97.3975 59.9282 97.5222 C 60.0647 97.6469 60.1349 97.7993 60.1389 97.9795 L 60.1389 97.9915 C 60.1389 98.1801 60.0667 98.351 59.9222 98.5041 C 59.7777 98.6572 59.6232 98.7392 59.4587 98.7501 Z"
         style="-inkscape-font-specification:Dyuthi;fill:#ffffff;fill-opacity:0.988235;font-family:Dyuthi;font-size:12.7px;font-stretch:normal;font-style:normal;font-variant:normal;font-weight:normal;paint-order:fill markers stroke;stroke:none;stroke-dasharray:none;stroke-miterlimit:4;stroke-opacity:1;stroke-width:0.1941342"
         id="path2861" />
      <path
         d="M 61.4952 101.724 C 61.2465 101.752 61.0338 101.69 60.8572 101.538 C 60.6847 101.382 60.5984 101.179 60.5984 100.93 L 60.5984 97.3787 C 60.5984 97.1299 60.6867 96.907 60.8632 96.7101 C 61.0438 96.5127 61.2545 96.4001 61.4952 96.3724 L 61.5073 96.371 C 61.7481 96.3432 61.9567 96.4074 62.1333 96.5636 C 62.3099 96.7198 62.3981 96.9223 62.3981 97.1711 L 62.3981 100.723 C 62.3981 100.971 62.3099 101.194 62.1333 101.391 C 61.9567 101.588 61.7481 101.698 61.5073 101.722 Z M 62.3259 94.85 C 62.3259 95.1108 62.2336 95.3422 62.049 95.544 C 61.8684 95.7455 61.6518 95.8607 61.3989 95.8899 C 61.1421 95.9195 60.9254 95.8542 60.7489 95.694 C 60.5723 95.5338 60.482 95.3235 60.478 95.0631 C 60.478 94.8023 60.5683 94.5732 60.7489 94.3758 C 60.9254 94.1748 61.1421 94.0616 61.3989 94.036 C 61.6477 94.0073 61.8644 94.0685 62.049 94.2198 C 62.2336 94.3751 62.3259 94.5851 62.3259 94.85 Z"
         style="-inkscape-font-specification:Dyuthi;fill:#ffffff;fill-opacity:0.988235;font-family:Dyuthi;font-size:12.7px;font-stretch:normal;font-style:normal;font-variant:normal;font-weight:normal;paint-order:fill markers stroke;stroke:none;stroke-dasharray:none;stroke-miterlimit:4;stroke-opacity:1;stroke-width:0.1941342"
         id="path2863" />
      <path
         d="M 65.0727 100.017 L 66.8544 99.8112 C 67.2918 99.7608 67.5186 99.8811 67.5346 100.172 L 67.5466 100.406 C 67.5547 100.601 67.5125 100.761 67.4202 100.884 C 67.3279 101.003 67.1434 101.076 66.8665 101.104 L 63.5137 101.491 C 63.3412 101.511 63.1927 101.466 63.0683 101.355 C 62.9439 101.241 62.8837 101.11 62.8877 100.961 C 62.8877 100.813 62.9319 100.671 63.0201 100.536 L 65.3496 97.0173 L 63.6702 97.211 C 63.3813 97.2443 63.1827 97.1248 63.0743 96.8524 L 63.0743 96.8283 C 63.0021 96.6279 63.0282 96.4343 63.1526 96.2474 C 63.277 96.0565 63.4495 95.9483 63.6702 95.9229 L 66.8183 95.5598 C 66.9949 95.5394 67.1494 95.5878 67.2818 95.7049 C 67.4062 95.823 67.4684 95.9623 67.4684 96.1228 C 67.4684 96.2833 67.4243 96.4309 67.336 96.5655 Z"
         style="-inkscape-font-specification:Dyuthi;fill:#ffffff;fill-opacity:0.988235;font-family:Dyuthi;font-size:12.7px;font-stretch:normal;font-style:normal;font-variant:normal;font-weight:normal;paint-order:fill markers stroke;stroke:none;stroke-dasharray:none;stroke-miterlimit:4;stroke-opacity:1;stroke-width:0.1941342"
         id="path2865" />
      <path
         d="M 68.0302 98.3333 C 68.0302 98.3333 68.0302 97.605 68.0302 96.1483 C 68.0302 95.9637 68.1105 95.7819 68.271 95.6029 C 68.3833 95.4776 68.582 95.4005 68.8669 95.3716 L 68.8849 95.3696 C 69.1698 95.3367 69.3685 95.368 69.4808 95.4633 C 69.6414 95.6053 69.7216 95.7686 69.7216 95.9532 L 69.7216 98.2586 C 69.7216 98.8004 69.8982 99.1351 70.2513 99.2629 C 70.6767 99.4226 71.0639 99.3759 71.413 99.1229 C 71.7622 98.874 71.9447 98.5901 71.9608 98.2712 L 71.9608 95.7732 C 71.9608 95.5365 72.0451 95.3281 72.2136 95.1481 C 72.33 95.0224 72.5326 94.9448 72.8216 94.9155 L 72.8396 94.9134 C 73.1245 94.8806 73.3232 94.9118 73.4355 95.0072 C 73.596 95.1492 73.6763 95.3386 73.6763 95.5753 L 73.6763 99.7889 C 73.6763 99.9373 73.6241 100.072 73.5198 100.192 C 73.4195 100.312 73.2891 100.381 73.1285 100.4 L 72.4905 100.473 C 72.346 100.49 72.2176 100.447 72.1053 100.343 C 71.9929 100.236 71.9387 100.118 71.9427 99.9888 C 70.5021 101.006 69.4106 101.087 68.6682 100.234 C 68.2429 99.7414 68.0302 99.1078 68.0302 98.3333 Z"
         style="-inkscape-font-specification:Dyuthi;fill:#ffffff;fill-opacity:0.988235;font-family:Dyuthi;font-size:12.7px;font-stretch:normal;font-style:normal;font-variant:normal;font-weight:normal;paint-order:fill markers stroke;stroke:none;stroke-dasharray:none;stroke-miterlimit:4;stroke-opacity:1;stroke-width:0.1941342"
         id="path2867" />
      <path
         d="M 79.812 96.86 C 79.812 96.86 79.816 97.5117 79.824 98.8149 C 79.824 99.0477 79.7397 99.256 79.5712 99.44 C 79.4107 99.619 79.212 99.7222 78.9753 99.7495 L 78.9572 99.7516 C 78.7245 99.7784 78.5259 99.7211 78.3613 99.5795 C 78.2008 99.4375 78.1206 99.2482 78.1206 99.0114 L 78.1206 96.7181 C 78.1206 96.1041 77.942 95.7294 77.5848 95.594 C 77.2277 95.4627 76.8545 95.5398 76.4652 95.8255 C 76.072 96.1076 75.8774 96.3989 75.8814 96.6994 L 75.8814 99.2576 C 75.8814 99.4984 75.7971 99.7108 75.6286 99.8947 C 75.46 100.075 75.2574 100.178 75.0206 100.206 L 75.0146 100.206 C 74.7738 100.234 74.5712 100.177 74.4066 100.036 C 74.2461 99.8937 74.1659 99.7003 74.1659 99.4555 L 74.1659 93.2857 C 74.1659 93.053 74.2461 92.8411 74.4066 92.65 C 74.5832 92.4691 74.7879 92.3653 75.0206 92.3384 L 75.0327 92.337 C 75.2654 92.3102 75.468 92.3671 75.6406 92.5077 C 75.8011 92.6497 75.8814 92.8391 75.8814 93.0758 L 75.8994 95.2046 C 76.3489 94.7555 76.7742 94.4857 77.1755 94.3953 C 78.0864 94.1939 78.7546 94.3395 79.1799 94.8322 C 79.6013 95.3253 79.812 96.0013 79.812 96.86 Z"
         style="-inkscape-font-specification:Dyuthi;fill:#ffffff;fill-opacity:0.988235;font-family:Dyuthi;font-size:12.7px;font-stretch:normal;font-style:normal;font-variant:normal;font-weight:normal;paint-order:fill markers stroke;stroke:none;stroke-dasharray:none;stroke-miterlimit:4;stroke-opacity:1;stroke-width:0.1941342"
         id="path2869" />
      <path
         d="M 81.8786 96.4832 C 81.8786 96.4832 81.8786 96.6157 81.8786 96.8805 C 81.8786 97.2978 81.989 97.6403 82.2097 97.9077 C 82.4304 98.1752 82.6972 98.2869 83.0102 98.2428 C 83.1948 98.2415 83.3814 98.202 83.57 98.124 C 83.9512 97.9476 84.1419 97.6367 84.1419 97.1913 C 84.1419 97.1913 84.1419 96.5131 84.1419 95.1568 C 84.0696 94.9364 83.861 94.7819 83.5158 94.6933 C 83.1707 94.6006 82.8116 94.6641 82.4384 94.8837 C 82.0652 95.0993 81.8786 95.6325 81.8786 96.4832 Z M 80.9998 98.6613 C 80.4861 98.1788 80.2293 97.5543 80.2293 96.7878 C 80.2293 96.0174 80.4861 95.3316 80.9998 94.7307 C 81.5134 94.1297 82.1354 93.7871 82.8658 93.7028 C 83.4797 93.632 83.9051 93.8538 84.1419 94.3682 C 84.1419 94.1917 84.2081 94.0295 84.3405 93.8818 C 84.4569 93.752 84.6033 93.677 84.7799 93.6566 L 85.2434 93.6031 C 85.42 93.5828 85.5704 93.6236 85.6948 93.7256 C 85.8192 93.8437 85.8814 93.991 85.8814 94.1676 L 85.8814 98.5617 C 85.8814 98.666 85.8453 98.7545 85.7731 98.827 C 85.7049 98.8991 85.6226 98.9407 85.5263 98.9518 L 84.804 99.0351 C 84.6996 99.0471 84.5793 98.9888 84.4428 98.86 C 84.3064 98.7313 84.184 98.6652 84.0756 98.6616 C 83.9673 98.6581 83.865 98.6939 83.7687 98.7693 C 83.3714 99.0719 83.0704 99.235 82.8658 99.2586 C 82.1354 99.3429 81.5134 99.1437 80.9998 98.6612 Z"
         style="-inkscape-font-specification:Dyuthi;fill:#ffffff;fill-opacity:0.988235;font-family:Dyuthi;font-size:12.7px;font-stretch:normal;font-style:normal;font-variant:normal;font-weight:normal;paint-order:fill markers stroke;stroke:none;stroke-dasharray:none;stroke-miterlimit:4;stroke-opacity:1;stroke-width:0.1941342"
         id="path2871" />
    </g>
  </g>
</svg>
