<?xml version="1.0" encoding="UTF-8"?>
<svg width="32.576mm" height="12.068mm" version="1.1" viewBox="0 0 32.576 12.068" xmlns="http://www.w3.org/2000/svg" xmlns:osb="http://www.openswatchbook.org/uri/2009/osb" xmlns:xlink="http://www.w3.org/1999/xlink">
 <defs>
  <linearGradient id="linearGradient874">
   <stop stop-color="#c0d725" offset="0"/>
   <stop stop-color="#7fc844" offset="1"/>
  </linearGradient>
  <radialGradient id="radialGradient899" cx="69.777" cy="81.92" r="16.265" gradientTransform="matrix(1.0268 -.22246 -.16168 1.1941 11.378 -.37681)" gradientUnits="userSpaceOnUse" xlink:href="#linearGradient874"/>
 </defs>
 <g transform="translate(-54.297 -91.338)">
  <g fill="none" stroke="url(#radialGradient899)" style="paint-order:fill markers stroke" aria-label="Fizuha">
   <g stroke-width="2">
    <path d="m57.097 98.925v2.4616c0 0.249-0.0863 0.472-0.2589 0.668-0.1725 0.197-0.3852 0.31-0.638 0.339l-0.012 1e-3c-0.2448 0.028-0.4535-0.036-0.626-0.193-0.1766-0.156-0.2649-0.358-0.2649-0.607v-5.592c0-0.305 0.1104-0.5805 0.3311-0.8267s0.4835-0.3868 0.7885-0.422l3.0096-0.3472c0.2208-0.0254 0.3973 0.0385 0.5297 0.1918 0.0883 0.0981 0.1325 0.2335 0.1325 0.406v0.2589c0 0.1244-0.0743 0.2533-0.2227 0.3868-0.1485 0.1335-0.295 0.2046-0.4395 0.2132l-2.3294 0.1603v1.7456l2.3535-0.3798c0.1766-0.0284 0.3331 0.0198 0.4695 0.1445 0.1365 0.1247 0.2067 0.2771 0.2107 0.4573v0.012c0 0.1886-0.0722 0.3595-0.2167 0.5126s-0.299 0.2351-0.4635 0.246z" style="paint-order:fill markers stroke"/>
    <path d="m61.487 101.74c-0.2487 0.028-0.4614-0.033-0.638-0.186-0.1725-0.156-0.2588-0.359-0.2588-0.608v-3.5511c0-0.2488 0.0883-0.4717 0.2648-0.6686 0.1806-0.1974 0.3913-0.31 0.632-0.3377l0.0121-0.0014c0.2408-0.0278 0.4494 0.0364 0.626 0.1926s0.2648 0.3587 0.2648 0.6075v3.5517c0 0.249-0.0882 0.471-0.2648 0.668s-0.3852 0.308-0.626 0.331zm0.8307-6.8738c0 0.2608-0.0923 0.4922-0.2769 0.694-0.1806 0.2015-0.3972 0.3167-0.6501 0.3459-0.2568 0.0296-0.4735-0.0357-0.65-0.1959-0.1766-0.1602-0.2669-0.3705-0.2709-0.6309 0-0.2608 0.0903-0.4899 0.2709-0.6873 0.1765-0.201 0.3932-0.3142 0.65-0.3398 0.2488-0.0287 0.4655 0.0325 0.6501 0.1838 0.1846 0.1553 0.2769 0.3653 0.2769 0.6302z" style="paint-order:fill markers stroke"/>
    <path d="m65.064 100.03 1.7817-0.2056c0.4374-0.0504 0.6642 0.0699 0.6802 0.3606l0.012 0.234c0.0081 0.195-0.0341 0.355-0.1264 0.478-0.0923 0.119-0.2768 0.192-0.5537 0.22l-3.3528 0.387c-0.1725 0.02-0.321-0.025-0.4454-0.135-0.1244-0.114-0.1846-0.246-0.1806-0.395 0-0.148 0.0442-0.29 0.1324-0.424l2.3295-3.5195-1.6794 0.1937c-0.2889 0.0333-0.4875-0.0862-0.5959-0.3586v-0.0241c-0.0722-0.2004-0.0461-0.394 0.0783-0.5809 0.1244-0.1909 0.2969-0.2991 0.5176-0.3245l3.1481-0.3631c0.1766-0.0204 0.3311 0.028 0.4635 0.1451 0.1244 0.1181 0.1866 0.2574 0.1866 0.4179s-0.0441 0.3081-0.1324 0.4427z" style="paint-order:fill markers stroke"/>
    <path d="m68.022 98.346v-2.185c0-0.1846 0.0803-0.3664 0.2408-0.5454 0.1123-0.1253 0.311-0.2024 0.5959-0.2313l0.018-2e-3c0.2849-0.0329 0.4836-0.0016 0.5959 0.0937 0.1606 0.142 0.2408 0.3053 0.2408 0.4899v2.3054c0 0.5418 0.1766 0.8765 0.5297 1.0043 0.4254 0.1597 0.8126 0.113 1.1617-0.14 0.3492-0.2489 0.5317-0.5328 0.5478-0.8517v-2.498c0-0.2367 0.0843-0.4451 0.2528-0.6251 0.1164-0.1257 0.319-0.2033 0.608-0.2326l0.018-0.0021c0.2849-0.0328 0.4836-0.0016 0.5959 0.0938 0.1605 0.142 0.2408 0.3314 0.2408 0.5681v4.2136c0 0.1484-0.0522 0.2829-0.1565 0.4029-0.1003 0.12-0.2307 0.189-0.3913 0.208l-0.638 0.074c-0.1445 0.016-0.2729-0.027-0.3852-0.131-0.1124-0.107-0.1666-0.225-0.1626-0.354-1.4406 1.017-2.5321 1.099-3.2745 0.245-0.4253-0.4924-0.638-1.126-0.638-1.9005z" style="paint-order:fill markers stroke"/>
    <path d="m79.804 96.872s4e-3 0.6517 0.012 1.9549c0 0.2328-0.0843 0.4411-0.2528 0.6251-0.1605 0.179-0.3592 0.2822-0.5959 0.3095l-0.0181 0.0021c-0.2327 0.0268-0.4313-0.0305-0.5959-0.1721-0.1605-0.142-0.2407-0.3313-0.2407-0.5681v-2.2933c0-0.614-0.1786-0.9887-0.5358-1.1241-0.3571-0.1313-0.7303-0.0542-1.1196 0.2315-0.3932 0.2821-0.5878 0.5734-0.5838 0.8739v2.5582c0 0.2408-0.0843 0.4532-0.2528 0.6371-0.1686 0.1801-0.3712 0.2841-0.608 0.3111l-6e-3 1e-3c-0.2408 0.027-0.4434-0.03-0.608-0.171-0.1605-0.1421-0.2407-0.3355-0.2407-0.5803v-6.1698c0-0.2327 0.0802-0.4446 0.2407-0.6357 0.1766-0.1809 0.3813-0.2847 0.614-0.3116l0.0121-0.0014c0.2327-0.0268 0.4353 0.0301 0.6079 0.1707 0.1605 0.142 0.2408 0.3314 0.2408 0.5681l0.018 2.1288c0.4495-0.4491 0.8748-0.7189 1.2761-0.8093 0.9109-0.2014 1.5791-0.0558 2.0044 0.4369 0.4214 0.4931 0.6321 1.1691 0.6321 2.0278z" style="paint-order:fill markers stroke"/>
   </g>
   <path d="m81.87 96.495v0.3973c0 0.4173 0.1104 0.7598 0.3311 1.0272 0.2207 0.2675 0.4875 0.3792 0.8005 0.3351 0.1846-0.0013 0.3712-0.0408 0.5598-0.1188 0.3812-0.1764 0.5719-0.4873 0.5719-0.9327v-2.0345c-0.0723-0.2204-0.2809-0.3749-0.6261-0.4635-0.3451-0.0927-0.7042-0.0292-1.0774 0.1904-0.3732 0.2156-0.5598 0.7488-0.5598 1.5995zm-0.8788 2.1781c-0.5137-0.4825-0.7705-1.107-0.7705-1.8735 0-0.7704 0.2568-1.4562 0.7705-2.0571 0.5136-0.601 1.1356-0.9436 1.866-1.0279 0.6139-0.0708 1.0393 0.151 1.2761 0.6654 0-0.1765 0.0662-0.3387 0.1986-0.4864 0.1164-0.1298 0.2628-0.2048 0.4394-0.2252l0.4635-0.0535c0.1766-0.0203 0.327 0.0205 0.4514 0.1225 0.1244 0.1181 0.1866 0.2654 0.1866 0.442v4.3941c0 0.1043-0.0361 0.1928-0.1083 0.2653-0.0682 0.0721-0.1505 0.1137-0.2468 0.1248l-0.7223 0.0833c-0.1044 0.012-0.2247-0.0463-0.3612-0.1751-0.1364-0.1287-0.2588-0.1948-0.3672-0.1984-0.1083-0.0035-0.2106 0.0323-0.3069 0.1077-0.3973 0.3026-0.65612 0.80327-0.86072 0.82687-0.7304 0.0843-1.3946-0.45247-1.9082-0.93497z" stroke-linejoin="round" stroke-width="2" style="paint-order:fill markers stroke"/>
  </g>
  <g fill="#fff" fill-opacity=".98824" style="paint-order:fill markers stroke" aria-label="Fizuha">
   <path d="m57.105 98.913v2.4618c0 0.249-0.0863 0.472-0.2589 0.668-0.1725 0.197-0.3852 0.309-0.638 0.338l-0.012 2e-3c-0.2448 0.028-0.4535-0.036-0.626-0.193-0.1766-0.156-0.2649-0.358-0.2649-0.607v-5.5922c0-0.305 0.1104-0.5805 0.3311-0.8267s0.4835-0.3868 0.7885-0.422l3.0096-0.3472c0.2208-0.0254 0.3973 0.0385 0.5297 0.1918 0.0883 0.0981 0.1325 0.2335 0.1325 0.406v0.2589c0 0.1244-0.0743 0.2533-0.2227 0.3868-0.1485 0.1335-0.295 0.2046-0.4395 0.2132l-2.3294 0.1603v1.7456l2.3535-0.3798c0.1766-0.0284 0.3331 0.0198 0.4695 0.1445 0.1365 0.1247 0.2067 0.2771 0.2107 0.4573v0.012c0 0.1886-0.0722 0.3595-0.2167 0.5126s-0.299 0.2351-0.4635 0.246z" style="paint-order:fill markers stroke"/>
   <path d="m61.495 101.72c-0.2487 0.028-0.4614-0.034-0.638-0.186-0.1725-0.156-0.2588-0.359-0.2588-0.608v-3.5513c0-0.2488 0.0883-0.4717 0.2648-0.6686 0.1806-0.1974 0.3913-0.31 0.632-0.3377l0.0121-0.0014c0.2408-0.0278 0.4494 0.0364 0.626 0.1926s0.2648 0.3587 0.2648 0.6075v3.5519c0 0.248-0.0882 0.471-0.2648 0.668s-0.3852 0.307-0.626 0.331zm0.8307-6.874c0 0.2608-0.0923 0.4922-0.2769 0.694-0.1806 0.2015-0.3972 0.3167-0.6501 0.3459-0.2568 0.0296-0.4735-0.0357-0.65-0.1959-0.1766-0.1602-0.2669-0.3705-0.2709-0.6309 0-0.2608 0.0903-0.4899 0.2709-0.6873 0.1765-0.201 0.3932-0.3142 0.65-0.3398 0.2488-0.0287 0.4655 0.0325 0.6501 0.1838 0.1846 0.1553 0.2769 0.3653 0.2769 0.6302z" style="paint-order:fill markers stroke"/>
   <path d="m65.073 100.02 1.7817-0.2058c0.4374-0.0504 0.6642 0.0699 0.6802 0.3608l0.012 0.234c0.0081 0.195-0.0341 0.355-0.1264 0.478-0.0923 0.119-0.2768 0.192-0.5537 0.22l-3.3528 0.387c-0.1725 0.02-0.321-0.025-0.4454-0.136-0.1244-0.114-0.1846-0.245-0.1806-0.394 0-0.148 0.0442-0.29 0.1324-0.425l2.3295-3.5187-1.6794 0.1937c-0.2889 0.0333-0.4875-0.0862-0.5959-0.3586v-0.0241c-0.0722-0.2004-0.0461-0.394 0.0783-0.5809 0.1244-0.1909 0.2969-0.2991 0.5176-0.3245l3.1481-0.3631c0.1766-0.0204 0.3311 0.028 0.4635 0.1451 0.1244 0.1181 0.1866 0.2574 0.1866 0.4179s-0.0441 0.3081-0.1324 0.4427z" style="paint-order:fill markers stroke"/>
   <path d="m68.03 98.333v-2.185c0-0.1846 0.0803-0.3664 0.2408-0.5454 0.1123-0.1253 0.311-0.2024 0.5959-0.2313l0.018-2e-3c0.2849-0.0329 0.4836-0.0016 0.5959 0.0937 0.1606 0.142 0.2408 0.3053 0.2408 0.4899v2.3054c0 0.5418 0.1766 0.8765 0.5297 1.0043 0.4254 0.1597 0.8126 0.113 1.1617-0.14 0.3492-0.2489 0.5317-0.5328 0.5478-0.8517v-2.498c0-0.2367 0.0843-0.4451 0.2528-0.6251 0.1164-0.1257 0.319-0.2033 0.608-0.2326l0.018-0.0021c0.2849-0.0328 0.4836-0.0016 0.5959 0.0938 0.1605 0.142 0.2408 0.3314 0.2408 0.5681v4.2136c0 0.1484-0.0522 0.2831-0.1565 0.4031-0.1003 0.12-0.2307 0.189-0.3913 0.208l-0.638 0.073c-0.1445 0.017-0.2729-0.026-0.3852-0.13-0.1124-0.107-0.1666-0.225-0.1626-0.3542-1.4406 1.0172-2.5321 1.0982-3.2745 0.2452-0.4253-0.4926-0.638-1.1262-0.638-1.9007z" style="paint-order:fill markers stroke"/>
   <path d="m79.812 96.86s4e-3 0.6517 0.012 1.9549c0 0.2328-0.0843 0.4411-0.2528 0.6251-0.1605 0.179-0.3592 0.2822-0.5959 0.3095l-0.0181 0.0021c-0.2327 0.0268-0.4313-0.0305-0.5959-0.1721-0.1605-0.142-0.2407-0.3313-0.2407-0.5681v-2.2933c0-0.614-0.1786-0.9887-0.5358-1.1241-0.3571-0.1313-0.7303-0.0542-1.1196 0.2315-0.3932 0.2821-0.5878 0.5734-0.5838 0.8739v2.5582c0 0.2408-0.0843 0.4532-0.2528 0.6371-0.1686 0.1803-0.3712 0.2833-0.608 0.3113h-6e-3c-0.2408 0.028-0.4434-0.029-0.608-0.17-0.1605-0.1423-0.2407-0.3357-0.2407-0.5805v-6.1698c0-0.2327 0.0802-0.4446 0.2407-0.6357 0.1766-0.1809 0.3813-0.2847 0.614-0.3116l0.0121-0.0014c0.2327-0.0268 0.4353 0.0301 0.6079 0.1707 0.1605 0.142 0.2408 0.3314 0.2408 0.5681l0.018 2.1288c0.4495-0.4491 0.8748-0.7189 1.2761-0.8093 0.9109-0.2014 1.5791-0.0558 2.0044 0.4369 0.4214 0.4931 0.6321 1.1691 0.6321 2.0278z" style="paint-order:fill markers stroke"/>
   <path d="m81.879 96.483v0.3973c0 0.4173 0.1104 0.7598 0.3311 1.0272 0.2207 0.2675 0.4875 0.3792 0.8005 0.3351 0.1846-0.0013 0.3712-0.0408 0.5598-0.1188 0.3812-0.1764 0.5719-0.4873 0.5719-0.9327v-2.0345c-0.0723-0.2204-0.2809-0.3749-0.6261-0.4635-0.3451-0.0927-0.7042-0.0292-1.0774 0.1904-0.3732 0.2156-0.5598 0.7488-0.5598 1.5995zm-0.8788 2.1781c-0.5137-0.4825-0.7705-1.107-0.7705-1.8735 0-0.7704 0.2568-1.4562 0.7705-2.0571 0.5136-0.601 1.1356-0.9436 1.866-1.0279 0.6139-0.0708 1.0393 0.151 1.2761 0.6654 0-0.1765 0.0662-0.3387 0.1986-0.4864 0.1164-0.1298 0.2628-0.2048 0.4394-0.2252l0.4635-0.0535c0.1766-0.0203 0.327 0.0205 0.4514 0.1225 0.1244 0.1181 0.1866 0.2654 0.1866 0.442v4.3941c0 0.1043-0.0361 0.1928-0.1083 0.2653-0.0682 0.0721-0.1505 0.1137-0.2468 0.1248l-0.7223 0.0833c-0.1044 0.012-0.2247-0.0463-0.3612-0.1751-0.1364-0.1287-0.2588-0.1948-0.3672-0.1984-0.1083-0.0035-0.2106 0.0323-0.3069 0.1077-0.3973 0.3026-0.6983 0.4657-0.9029 0.4893-0.7304 0.0843-1.3524-0.1149-1.866-0.5974z" style="paint-order:fill markers stroke"/>
  </g>
 </g>
</svg>
