<?xml version="1.0" encoding="UTF-8" standalone="no"?>
<svg
   xmlns:osb="http://www.openswatchbook.org/uri/2009/osb"
   xmlns:dc="http://purl.org/dc/elements/1.1/"
   xmlns:cc="http://creativecommons.org/ns#"
   xmlns:rdf="http://www.w3.org/1999/02/22-rdf-syntax-ns#"
   xmlns:svg="http://www.w3.org/2000/svg"
   xmlns="http://www.w3.org/2000/svg"
   xmlns:sodipodi="http://sodipodi.sourceforge.net/DTD/sodipodi-0.dtd"
   xmlns:inkscape="http://www.inkscape.org/namespaces/inkscape"
   inkscape:export-ydpi="720"
   inkscape:export-xdpi="720"
   inkscape:export-filename="/home/evgeniy/Projects/fizuha/logo1.png"
   width="41.226704mm"
   height="29.253866mm"
   viewBox="0 0 41.226704 29.253866"
   version="1.1"
   id="svg8"
   inkscape:version="1.0 (1.0+r73+1)"
   sodipodi:docname="logos.svg">
  <defs
     id="defs2">
    <inkscape:path-effect
       effect="powerclip"
       id="path-effect926"
       is_visible="true"
       lpeversion="1"
       inverse="true"
       flatten="false"
       hide_clip="false"
       message="Use fill-rule evenodd on &lt;b&gt;fill and stroke&lt;/b&gt; dialog if no flatten result after convert clip to paths." />
    <inkscape:path-effect
       effect="powerclip"
       id="path-effect924"
       is_visible="true"
       lpeversion="1"
       inverse="true"
       flatten="false"
       hide_clip="false"
       message="Use fill-rule evenodd on &lt;b&gt;fill and stroke&lt;/b&gt; dialog if no flatten result after convert clip to paths." />
    <inkscape:path-effect
       effect="powerclip"
       id="path-effect892"
       is_visible="true"
       lpeversion="1"
       inverse="true"
       flatten="false"
       hide_clip="false"
       message="Use fill-rule evenodd on &lt;b&gt;fill and stroke&lt;/b&gt; dialog if no flatten result after convert clip to paths." />
    <inkscape:path-effect
       effect="powerclip"
       id="path-effect890"
       is_visible="true"
       lpeversion="1"
       inverse="true"
       flatten="false"
       hide_clip="false"
       message="Use fill-rule evenodd on &lt;b&gt;fill and stroke&lt;/b&gt; dialog if no flatten result after convert clip to paths." />
    <inkscape:path-effect
       message="Use fill-rule evenodd on &lt;b&gt;fill and stroke&lt;/b&gt; dialog if no flatten result after convert clip to paths."
       hide_clip="false"
       flatten="false"
       inverse="true"
       lpeversion="1"
       is_visible="true"
       id="path-effect2951"
       effect="powerclip" />
    <linearGradient
       osb:paint="solid"
       id="linearGradient907">
      <stop
         id="stop905"
         offset="0"
         style="stop-color:#ffffff;stop-opacity:1;" />
    </linearGradient>
    <inkscape:path-effect
       message="Use fill-rule evenodd on &lt;b&gt;fill and stroke&lt;/b&gt; dialog if no flatten result after convert clip to paths."
       hide_clip="false"
       flatten="false"
       inverse="true"
       lpeversion="1"
       is_visible="true"
       id="path-effect883"
       effect="powerclip" />
    <linearGradient
       id="linearGradient943"
       osb:paint="solid">
      <stop
         style="stop-color:#ffffff;stop-opacity:1;"
         offset="0"
         id="stop941" />
    </linearGradient>
    <clipPath
       id="clipPath879"
       clipPathUnits="userSpaceOnUse">
      <rect
         d="m 42.508595,89.258247 h 3.901547 v 7.740117 h -3.901547 z"
         transform="rotate(-5.9926392)"
         y="89.258247"
         x="42.508595"
         height="7.7401171"
         width="3.9015477"
         id="rect881"
         style="display:none;fill:#278040;fill-opacity:1;stroke:#278040;stroke-width:0.264999;stroke-linejoin:round;stroke-miterlimit:4;stroke-dasharray:none;stroke-opacity:1" />
    </clipPath>
    <clipPath
       id="clipPath2947"
       clipPathUnits="userSpaceOnUse">
      <rect
         d="m 42.022106,88.806541 h 2.521109 v 3.534521 h -2.521109 z"
         transform="rotate(-6.7307288)"
         y="88.806541"
         x="42.022106"
         height="3.5345209"
         width="2.5211091"
         id="rect2949"
         style="display:none;fill:#278040;fill-opacity:1;stroke:none;stroke-width:1;stroke-linejoin:round;stroke-miterlimit:4;stroke-dasharray:none;stroke-opacity:0.7;paint-order:fill markers stroke" />
    </clipPath>
    <clipPath
       id="clipPath2973"
       clipPathUnits="userSpaceOnUse">
      <rect
         transform="matrix(0.99483717,-0.10148404,0.11663378,0.99317499,0,0)"
         y="83.712212"
         x="45.231884"
         height="38.670975"
         width="34.171108"
         id="rect2975"
         style="display:none;fill:#278040;fill-opacity:1;stroke:none;stroke-width:11.1842;stroke-linejoin:round;stroke-miterlimit:4;stroke-dasharray:none;stroke-opacity:0.7;paint-order:fill markers stroke" />
    </clipPath>
    <clipPath
       clipPathUnits="userSpaceOnUse"
       id="clipath_lpe_path-effect2951">
      <rect
         style="display:block;fill:#278040;fill-opacity:1;stroke:none;stroke-width:11.1842;stroke-linejoin:round;stroke-miterlimit:4;stroke-dasharray:none;stroke-opacity:0.7;paint-order:fill markers stroke"
         id="rect42"
         width="34.171108"
         height="38.670975"
         x="45.231884"
         y="83.712212"
         transform="matrix(0.99483717,-0.10148404,0.11663378,0.99317499,0,0)" />
    </clipPath>
    <clipPath
       id="clipPath2973-3"
       clipPathUnits="userSpaceOnUse">
      <rect
         transform="matrix(0.99483717,-0.10148404,0.11663378,0.99317499,0,0)"
         y="83.712212"
         x="45.231884"
         height="38.670975"
         width="34.171108"
         id="rect2975-6"
         style="display:none;fill:#278040;fill-opacity:1;stroke:none;stroke-width:11.1842;stroke-linejoin:round;stroke-miterlimit:4;stroke-dasharray:none;stroke-opacity:0.7;paint-order:fill markers stroke"
         d="M 45.231884,83.712212 H 79.402992 V 122.38319 H 45.231884 Z" />
      <path
         id="lpe_path-effect883"
         style="fill:#278040;fill-opacity:1;stroke:none;stroke-width:11.1842;stroke-linejoin:round;stroke-miterlimit:4;stroke-dasharray:none;stroke-opacity:0.7;paint-order:fill markers stroke"
         class="powerclip"
         d="M 48.353425,74.345782 H 90.921116 V 110.46818 H 48.353425 Z" />
    </clipPath>
    <clipPath
       clipPathUnits="userSpaceOnUse"
       id="clipath_lpe_path-effect2951-7">
      <rect
         d="M 45.231884,83.712212 H 79.402992 V 122.38319 H 45.231884 Z"
         style="display:none;fill:#278040;fill-opacity:1;stroke:none;stroke-width:11.1842;stroke-linejoin:round;stroke-miterlimit:4;stroke-dasharray:none;stroke-opacity:0.7;paint-order:fill markers stroke"
         id="rect876"
         width="34.171108"
         height="38.670975"
         x="45.231884"
         y="83.712212"
         transform="matrix(0.99483717,-0.10148404,0.11663378,0.99317499,0,0)" />
      <path
         d="M 48.353425,74.345782 H 90.921116 V 110.46818 H 48.353425 Z"
         class="powerclip"
         style="fill:#278040;fill-opacity:1;stroke:none;stroke-width:11.1842;stroke-linejoin:round;stroke-miterlimit:4;stroke-dasharray:none;stroke-opacity:0.7;paint-order:fill markers stroke"
         id="lpe_path-effect2951" />
    </clipPath>
    <clipPath
       id="clipath_lpe_path-effect890"
       clipPathUnits="userSpaceOnUse">
      <rect
         transform="matrix(0.99483717,-0.10148404,0.11663378,0.99317499,0,0)"
         y="83.712212"
         x="45.231884"
         height="38.670975"
         width="34.171108"
         id="rect894"
         style="display:none;fill:#278040;fill-opacity:1;stroke:none;stroke-width:11.1842;stroke-linejoin:round;stroke-miterlimit:4;stroke-dasharray:none;stroke-opacity:0.7;paint-order:fill markers stroke"
         d="M 45.231884,83.712212 H 79.402992 V 122.38319 H 45.231884 Z" />
    </clipPath>
    <clipPath
       clipPathUnits="userSpaceOnUse"
       id="clipath_lpe_path-effect892">
      <rect
         style="display:block;fill:#278040;fill-opacity:1;stroke:none;stroke-width:11.1842;stroke-linejoin:round;stroke-miterlimit:4;stroke-dasharray:none;stroke-opacity:0.7;paint-order:fill markers stroke"
         id="rect899"
         width="34.171108"
         height="38.670975"
         x="45.231884"
         y="83.712212"
         transform="matrix(0.99483717,-0.10148404,0.11663378,0.99317499,0,0)" />
    </clipPath>
    <clipPath
       id="clipPath2973-5"
       clipPathUnits="userSpaceOnUse">
      <rect
         transform="matrix(0.99483717,-0.10148404,0.11663378,0.99317499,0,0)"
         y="83.712212"
         x="45.231884"
         height="38.670975"
         width="34.171108"
         id="rect2975-3"
         style="display:none;fill:#278040;fill-opacity:1;stroke:none;stroke-width:11.1842;stroke-linejoin:round;stroke-miterlimit:4;stroke-dasharray:none;stroke-opacity:0.7;paint-order:fill markers stroke"
         d="M 45.231884,83.712212 H 79.402992 V 122.38319 H 45.231884 Z" />
      <path
         id="lpe_path-effect883-5"
         style="fill:#278040;fill-opacity:1;stroke:none;stroke-width:11.1842;stroke-linejoin:round;stroke-miterlimit:4;stroke-dasharray:none;stroke-opacity:0.7;paint-order:fill markers stroke"
         class="powerclip"
         d="M 48.353425,74.345782 H 90.921116 V 110.46818 H 48.353425 Z" />
    </clipPath>
    <clipPath
       clipPathUnits="userSpaceOnUse"
       id="clipath_lpe_path-effect2951-6">
      <rect
         d="M 45.231884,83.712212 H 79.402992 V 122.38319 H 45.231884 Z"
         style="display:none;fill:#278040;fill-opacity:1;stroke:none;stroke-width:11.1842;stroke-linejoin:round;stroke-miterlimit:4;stroke-dasharray:none;stroke-opacity:0.7;paint-order:fill markers stroke"
         id="rect896"
         width="34.171108"
         height="38.670975"
         x="45.231884"
         y="83.712212"
         transform="matrix(0.99483717,-0.10148404,0.11663378,0.99317499,0,0)" />
      <path
         d="M 48.353425,74.345782 H 90.921116 V 110.46818 H 48.353425 Z"
         class="powerclip"
         style="fill:#278040;fill-opacity:1;stroke:none;stroke-width:11.1842;stroke-linejoin:round;stroke-miterlimit:4;stroke-dasharray:none;stroke-opacity:0.7;paint-order:fill markers stroke"
         id="lpe_path-effect2951-2" />
    </clipPath>
    <clipPath
       id="clipath_lpe_path-effect924"
       clipPathUnits="userSpaceOnUse">
      <rect
         transform="matrix(0.99483717,-0.10148404,0.11663378,0.99317499,0,0)"
         y="83.712212"
         x="45.231884"
         height="38.670975"
         width="34.171108"
         id="rect928"
         style="display:none;fill:#278040;fill-opacity:1;stroke:none;stroke-width:11.1842;stroke-linejoin:round;stroke-miterlimit:4;stroke-dasharray:none;stroke-opacity:0.7;paint-order:fill markers stroke"
         d="M 45.231884,83.712212 H 79.402992 V 122.38319 H 45.231884 Z" />
    </clipPath>
  </defs>
  <sodipodi:namedview
     id="base"
     pagecolor="#ffffff"
     bordercolor="#666666"
     borderopacity="1.0"
     inkscape:pageopacity="1"
     inkscape:pageshadow="2"
     inkscape:zoom="5.186457"
     inkscape:cx="85.465654"
     inkscape:cy="89.719068"
     inkscape:document-units="mm"
     inkscape:current-layer="layer5"
     inkscape:document-rotation="0"
     showgrid="false"
     inkscape:window-width="1848"
     inkscape:window-height="1010"
     inkscape:window-x="72"
     inkscape:window-y="33"
     inkscape:window-maximized="1"
     inkscape:snap-nodes="true"
     showguides="false"
     inkscape:snap-grids="true"
     inkscape:snap-others="false"
     inkscape:snap-center="false"
     inkscape:snap-object-midpoints="false"
     inkscape:snap-bbox="false" />
  <metadata
     id="metadata5">
    <rdf:RDF>
      <cc:Work
         rdf:about="">
        <dc:format>image/svg+xml</dc:format>
        <dc:type
           rdf:resource="http://purl.org/dc/dcmitype/StillImage" />
        <dc:title />
      </cc:Work>
    </rdf:RDF>
  </metadata>
  <g
     style="display:inline"
     inkscape:groupmode="layer"
     id="layer5"
     inkscape:label="Logo-3"
     transform="translate(-0.07933578,-0.02329571)">
    <path
       id="path917"
       style="display:inline;fill:#a32857;fill-opacity:0.678431;paint-order:fill markers stroke;stroke-dasharray:none;stroke-linejoin:round;stroke-miterlimit:4;stroke-width:0.058750655150000004"
       d="M 24.0815 0.0243292 C 23.8729 0.0171675 23.6702 0.0453214 23.5161 0.110629 C 23.1118 0.281987 22.7645 0.951174 22.7653 1.55653 C 22.7657 1.91279 22.8451 2.19407 23.1141 2.79263 C 23.2373 3.06686 23.3666 3.36382 23.4019 3.45254 C 23.4528 3.58062 23.5043 3.61377 23.6505 3.61377 C 23.8127 3.61377 23.83 3.62921 23.7988 3.74554 C 23.7793 3.81812 23.7631 3.9237 23.7626 3.98016 C 23.7622 4.03839 23.7175 4.08333 23.6593 4.08351 C 23.6028 4.08374 23.4562 4.11188 23.3332 4.14604 C 23.0783 4.21681 22.8493 4.52509 22.6433 5.07569 C 22.487 5.49344 21.9401 6.73832 21.8868 6.79807 C 21.8174 6.87573 21.2754 6.29133 20.986 5.82707 C 20.7141 5.3907 20.6447 5.11212 20.7752 4.98164 C 20.8505 4.90639 20.6994 4.40723 20.552 4.24422 C 20.3227 3.99076 19.8496 4.27744 19.7923 4.70466 C 19.7639 4.91661 19.7819 4.96751 19.9427 5.13202 C 20.0549 5.24683 20.1043 5.33794 20.1199 5.45655 C 20.1273 5.77991 20.169 7.28335 20.2093 8.83308 L 20.2894 11.9114 L 20.5943 11.7089 L 20.5943 10.4862 C 20.5943 9.81395 20.5769 8.6261 20.5556 7.84658 C 20.5243 6.70467 20.5178 6.25249 20.5168 6.17692 C 20.5168 6.17692 20.7977 6.60761 20.937 6.86576 C 21.0664 7.10586 21.311 7.51792 21.4801 7.78147 L 21.7875 8.26103 L 22.0423 8.23209 C 22.1826 8.21628 22.3114 8.22607 22.3286 8.25379 C 22.362 8.30773 22.2608 10.0412 22.1994 10.4692 C 22.1691 10.6805 22.096 10.7966 21.7819 11.1296 C 21.4038 11.5303 21.1056 11.693 20.7266 11.7047 L 20.5943 11.7089 L 20.2894 11.9114 L 20.1489 12.0417 C 19.9623 12.2146 19.9661 12.4778 20.1603 12.8091 L 20.3127 13.069 L 20.6346 12.9031 L 20.9535 12.7734 C 21.1288 12.7022 21.4666 12.4856 21.7038 12.2918 C 21.9411 12.0979 22.1448 11.9488 22.1565 11.9605 C 22.1682 11.9722 22.1238 12.2173 22.0583 12.5052 C 21.9051 13.1787 21.8489 14.6361 21.9348 15.6973 C 22.0951 17.6774 22.1949 18.5496 22.3622 19.4221 C 22.4611 19.9383 22.555 20.6249 22.5704 20.9476 C 22.5971 21.5043 22.5901 21.5502 22.4325 21.8555 C 22.2616 22.1455 22.1837 22.2458 21.5891 22.3775 L 20.7892 22.502 L 20.7504 20.0236 C 20.729 18.6605 20.6946 16.5005 20.6734 15.2239 L 20.6346 12.9031 L 20.3127 13.069 L 20.3453 17.8067 L 20.3778 22.5439 L 20.1783 22.5795 C 20.0686 22.5992 19.1472 22.7339 18.1309 22.8787 C 12.2358 23.7185 6.78657 24.4206 3.57369 24.7541 C 2.12943 24.9039 1.98868 24.9408 1.80326 25.2238 C 1.66878 25.429 1.58479 25.8088 1.62704 26.0201 C 1.65781 26.174 1.7398 26.2589 2.05234 26.4604 C 3.71093 27.5297 6.68688 28.3312 9.47875 28.4608 C 11.2265 28.5419 15.3744 28.1209 18.7035 27.5244 L 19.4812 27.3854 L 19.5065 27.51 C 19.5202 27.5785 19.5465 27.8323 19.5655 28.0743 C 19.609 28.6304 19.7816 28.9963 20.0667 29.1378 C 20.3693 29.288 20.6547 29.3179 20.8703 29.222 C 21.2059 29.0725 21.4286 28.4734 21.5095 27.5027 L 21.5483 27.0366 L 21.9953 26.9343 C 23.307 26.6343 30.3951 24.8557 31.681 24.5039 C 34.7415 23.6666 37.5339 22.5836 39.2237 21.5791 L 39.8918 21.1822 L 39.8929 20.9073 C 39.8934 20.5892 39.8135 20.3463 39.6707 20.2303 C 39.2886 19.92 38.3703 19.6859 37.5344 19.6862 C 36.8723 19.6864 34.2877 20.1182 27.5975 21.3455 L 26.5351 21.5403 L 25.3755 21.7635 L 24.466 21.9206 C 23.9659 22.0071 23.5372 22.0808 23.513 22.0845 C 23.4889 22.0865 23.4689 21.7942 23.4691 21.4313 C 23.4693 21.0683 23.5094 20.4547 23.558 20.0675 C 23.6494 19.3397 23.6425 19.1751 23.4862 18.3421 C 23.4087 17.9293 23.4046 17.7591 23.4609 17.3013 C 23.524 16.7875 23.6692 16.2838 23.7539 16.2843 C 23.7746 16.2844 23.8482 16.5454 23.9177 16.8646 C 23.9872 17.1838 24.1405 17.6787 24.2582 17.9643 C 24.9462 19.634 25.343 20.8831 25.3636 21.4437 L 25.3755 21.7635 L 26.5351 21.5403 L 26.4943 20.8044 C 26.4397 19.822 26.3886 19.6156 25.9723 18.6888 C 25.6452 17.9604 25.6146 17.8569 25.592 17.3979 C 25.5726 17.0038 25.5985 16.7698 25.7155 16.2838 C 25.797 15.9453 25.9073 15.2855 25.9604 14.8177 C 26.0142 14.3444 26.1098 13.8237 26.1759 13.6442 C 26.3458 13.183 26.3791 12.5862 26.2612 12.1192 C 26.2083 11.9095 25.9824 11.355 25.7589 10.8872 C 25.3019 9.93067 25.2292 9.70586 25.2292 9.24494 C 25.2292 8.8113 25.2981 8.58879 25.7 7.72049 C 26.3433 6.33053 26.433 5.5884 26.085 4.53826 C 25.937 4.09174 25.8603 3.70918 25.7888 3.0567 C 25.5507 0.885533 25.3866 0.453633 24.683 0.150936 C 24.5046 0.0742172 24.29 0.031491 24.0815 0.0243292 Z" />
  </g>
  <g
     inkscape:groupmode="layer"
     id="layer4"
     inkscape:label="Logo-2"
     style="display:inline"
     transform="translate(-0.07933578,-0.02329571)">
    <path
       d="m 0.21447078,18.528496 c -0.279612,2.834605 0.281474,5.211013 -0.135135,7.784863 l 10.56883522,0.0468 c 0,0 -0.581315,-3.1317 -0.5064,-4.708455 0.07359,-1.548523 0.93352,-4.556158 0.93352,-4.556158 2.041903,1.672101 2.796407,2.486493 5.33403,2.784469 0,0 0.893515,-0.801455 1.226412,-1.293637 0.759387,-1.122742 1.208757,-2.430804 1.697526,-3.695054 0.368142,-0.952234 0.926055,-2.919392 0.926055,-2.919392 0,0 0.36072,0.157462 0.476538,0.560826 0.258151,1.420986 0.823299,2.88072 1.433941,4.042789 0.503875,0.949982 1.917659,2.832153 1.917659,2.832153 0,0 1.390381,0.194702 2.086487,0.152903 1.450373,-0.08708 2.851924,-0.39134 4.277941,-0.836461 0.211108,0.977551 -0.147048,1.977471 -0.301739,2.949414 -0.360344,1.798443 -1.638162,3.175203 -2.752032,4.666473 l 11.776969,0.005 c 0,0 1.65095,-4.563204 1.951096,-6.950941 0.272825,-2.170386 0.246076,-4.410122 -0.154583,-6.560584 C 40.77249,11.764863 40.518339,10.636309 39.869186,9.7643913 39.109282,8.7437295 37.854122,8.2912865 36.797406,7.4979106 36.576666,6.3206574 37.085547,4.9269676 36.698036,3.7327954 36.522819,3.1928565 36.207642,2.6424985 35.734781,2.3284245 c -0.706284,-0.469113 -1.649084,-0.609669 -2.491412,-0.512808 -0.788426,0.09066 -1.587111,0.449825 -2.162167,0.996768 -0.431408,0.410314 -0.597273,1.0337539 -0.828085,1.582573 -0.05514,0.1311261 0.256934,0.58656 0.256934,0.58656 0,0 -0.351006,0.3236561 -0.484483,0.5191199 -0.178539,0.2614451 -0.568545,0.524093 -0.410872,0.8562941 0.0761,0.1603261 0.476364,0.237781 0.476364,0.237781 0,0 0.05842,0.238569 0.02106,0.523213 -0.09946,0.2667979 -0.03749,0.6585411 -0.0013,0.984844 0.02884,0.2616811 -0.14205,0.682856 0.05432,0.9184169 0.637484,0.4394552 1.396423,0.3326482 2.115807,0.1563651 0,0 0.638463,0.9424455 0.672801,1.6036075 -0.519108,0.262999 -1.000009,0.564924 -1.38008,0.982593 -0.42644,0.46862 -0.95195,1.645262 -0.95195,1.645262 0,0 -1.511887,0.155793 -2.561243,0.803202 -0.799973,0.493562 -1.026994,1.231308 -1.026994,1.231308 l -0.660469,0.244373 c 0,0 -1.012938,-1.057346 -1.248418,-1.237106 -0.221506,-0.169078 -0.720467,-0.520626 -0.939692,-0.793254 -0.475654,-0.754783 -0.935764,-1.492569 -1.319268,-2.297286 0,0 0.276679,-0.164067 0.299785,-0.315197 0.01682,-0.110018 -0.106214,-0.316538 -0.106214,-0.316538 0,0 0.251188,-0.02863 0.287067,-0.312651 0.01407,-0.111358 -0.08897,-0.324746 -0.08897,-0.324746 0,0 0.16784,-0.1211107 0.207387,-0.2447127 0.08634,-0.269853 -0.07985,-0.4764459 -0.07985,-0.4764459 0,0 0.04063,-0.3512248 -0.0473,-0.4896519 -0.194972,-0.307045 -0.938403,-0.5567871 -0.938403,-0.5567871 0,0 -0.257921,-0.3628749 -0.450059,-0.4562408 -0.189874,-0.09266 -0.62921,-0.07146 -0.62921,-0.07146 0,0 -0.282902,-0.3390821 -0.482995,-0.3984602 -0.148014,-0.04393 -0.339624,-0.04423 -0.460237,0.05215 -0.1405,0.1122799 -0.25524,0.2091288 -0.177504,0.5095158 -0.44494,-0.1320459 -0.639393,-0.05394 -0.781718,0.05157 -0.190733,0.1413888 -0.115658,0.4511958 -0.115658,0.4511958 0,0 -0.338839,-0.06363 -0.518384,0.172969 -0.165021,0.217461 -0.05695,0.4826122 -0.05695,0.4826122 -0.31272,0.0098 -0.430568,0.2623518 -0.456273,0.4821181 -0.03079,0.263063 0.398243,0.6875587 0.398243,0.6875587 l -1.61174,2.82164 c 0,0 -0.599214,0.425353 -0.864215,0.678017 -0.331838,0.316391 -0.899612,1.040516 -0.899612,1.040516 0,0 -0.377027,-0.944252 -0.724739,-1.252732 -0.572475,-0.507887 -1.370956,-0.790356 -1.370956,-0.790356 0,0 -0.134879,-0.834039 -0.307098,-1.214408 -0.21203,-0.468301 -0.874114,-1.27055 -0.874114,-1.27055 0,0 0.549465,-0.5917917 0.497789,-0.9462965 -0.01488,-0.102018 -0.237301,-0.2938579 -0.237301,-0.2938579 l 0.02924,-0.183566 c 0,0 0.181592,-0.0079 0.260746,-0.04713 0.09237,-0.04572 0.194503,-0.07049 0.228169,-0.2085872 0.0424,-0.1740109 0.03603,-0.472512 0.06531,-0.6341459 0.144382,-0.03235 0.272776,-0.04738 0.390295,-0.1151221 0.339612,-0.1978768 0.147376,-0.4679569 -0.0076,-0.6749809 -0.195603,-0.2620941 -0.368079,-0.6480159 -0.539663,-0.9164989 0,0 0.315439,-0.3026752 0.277283,-0.5659612 -0.202664,-1.3982257 -0.35623,-2.1563137 -1.315937,-2.9465637 -0.772662,-0.603764 -2.1272032,-0.72494 -3.1791152,-0.610241 -0.904478,0.09863 -1.82322,0.51777 -2.283658,1.185295 -0.228715,0.331587 -0.441873,1.207279 -0.446592,2.0321511 -0.0056,0.9956699 0.225446,1.9314089 0.225446,1.9314089 0,0 -0.131151,0.4791209 -0.567208,1.04893 0,0 -1.90397,0.8695891 -2.615375,1.6043836 -0.714359,0.7378447 -1.175249,1.7114347 -1.52528,2.6769347 -0.68012002,1.876017 -0.68218402,2.490771 -1.05815002,5.892217 z"
       style="display:inline;fill:#dc793e;fill-opacity:0.678431;stroke:none;stroke-width:0.218691px;stroke-linecap:butt;stroke-linejoin:miter;stroke-opacity:1"
       id="path914" />
  </g>
  <g
     inkscape:groupmode="layer"
     id="layer2"
     inkscape:label="Logo-1"
     style="display:inline"
     transform="translate(-0.07933578,-0.02329571)">
    <path
       id="path869"
       clip-path="none"
       style="display:inline;fill:#278040;fill-opacity:0.678431;stroke:none;stroke-width:0.654234;stroke-linecap:butt;stroke-linejoin:miter;stroke-opacity:1"
       d="m 22.4795,2.7146 v 5.3e-4 C 21.9763,2.73428 21.4638,2.89469 21.0512,3.24275 20.882,3.67274 20.6871,3.87683 20.5256,4.38738 20.5018,4.55769 20.4967,5.0261 20.4967,5.0261 c 0,0 -0.1676,0.29258 -0.1938,0.5302 -0.0049,0.0502 -0.0073,0.1046 -0.0088,0.15968 l 0.063,0.84077 c 0.0417,0.28742 0.097,0.57299 0.1561,0.80977 0.0877,0.17026 0.3902,0.4222 0.3902,0.4222 L 20.877,8.42537 20.876,9.50179 c 0,0 -0.3974,0.24708 -0.6124,0.33641 -0.2251,0.0935 -0.7018,0.2057 -0.7018,0.2057 0,0 -0.4544,-0.34236 -1.2882,-0.33334 -0.6756,0.08139 -1.172,0.44774 -1.6904,0.94104 -0.2544,0.2754 -0.6185,0.9395 -0.6185,0.9395 0,0 -0.3836,0.0698 -0.6233,0.1467 -0.4905,0.1578 -1.0174,0.4577 -1.2691,0.9684 0,0 -0.6107,-0.7682 -0.8005,-1.1735 C 12.838,10.5892 13.0171,9.71781 13.0424,8.6791 13.0625,8.45458 13.2461,8.26251 13.2553,8.03728 13.2644,7.81287 13.1887,7.59605 13.1147,7.37996 l 7.2424,-0.82322 -0.063,-0.84078 -7.4528,0.8475 C 12.7981,6.48136 12.7493,6.40265 12.6837,6.33866 12.5542,6.21228 12.3925,6.10224 12.2155,6.06426 12.1523,6.05065 12.0223,6.08493 12.0223,6.08493 c 0,0 -0.2002,-0.02048 -0.2998,-0.01136 -0.113,0.01031 -0.3322,0.07493 -0.3322,0.07493 0,0 -0.1706,-0.02239 -0.2527,-0.00362 -0.0861,0.01963 -0.2372,0.11834 -0.2372,0.11834 0,0 -0.0899,0.01559 -0.1339,0.0279 -0.0837,0.02342 -0.192,-0.06745 -0.2454,0.00104 -0.0701,0.08978 -0.0463,0.22705 -0.0321,0.34003 0.0052,0.0363 0.0148,0.07314 0.0243,0.11007 L 5.44128,7.37891 5.51156,8.27394 10.8316,7.63988 c 0.0368,0.10726 0.0655,0.21632 0.0781,0.32814 0.1317,0.37285 0.4751,0.7925 0.463,1.18236 0.0829,0.6986 -0.0625,1.60392 -0.0796,2.10892 -0.0453,1.6457 0.0238,2.9757 0.4682,4.717 0.0308,0.0998 0.124,0.2878 0.124,0.2878 0,0 0.5826,0.1949 0.8858,0.215 1.0183,0.0582 1.7224,-0.2851 2.7497,-0.6392 0.4968,-0.2221 1.4369,-0.7232 2.0164,-1.6128 0.0323,-0.0613 0.1584,0.0431 0.1762,0.11 0.0923,0.3473 0.0277,0.7071 0.0465,1.0589 0.0537,1.0054 0.0392,2.0161 -0.0383,3.0199 -0.0699,0.9059 -0.2044,1.8081 -0.3844,2.6986 -0.122,0.5513 -0.2955,1.4172 -0.4992,1.9694 -0.7172,1.9439 -1.8099,3.5998 -2.357,5.7516 l 11.4882,-0.0548 c 0.13,-1.7851 0.3741,-3.3878 0.4491,-5.0829 0.0427,-0.9655 -0.0042,-2.0008 -0.0713,-3.0169 -0.0399,-0.6029 0.0369,-1.2119 0.141,-1.8071 0.2069,-1.1433 0.666,-2.4375 1.0666,-3.6354 0.1751,-0.4797 0.5144,-1.4238 0.5359,-2.0015 0,0 0.9379,0.87 1.4759,1.2093 0.3843,0.2423 0.7833,0.5259 1.2345,0.5793 0.566,0.0669 1.6738,-0.3452 1.6738,-0.3452 0.4449,-0.6412 0.1969,-1.5955 0.1721,-2.3761 C 32.543,11.307 32.205,10.5119 31.8417,9.42168 31.6465,8.91487 31.5026,8.42698 31.3544,7.92306 31.2099,7.43183 30.9632,6.43737 30.9632,6.43737 c 0,0 0.154,-0.29916 0.1809,-0.46251 0.035,-0.21295 0.0491,-0.40032 0.0547,-0.62011 l 5.2834,-0.65113 -0.095,-0.83715 -5.2747,0.6506 C 31.0961,4.45374 31.077,4.39109 31.0552,4.32949 31.0048,4.18776 30.9263,4.02472 30.7875,3.96672 30.6459,3.90756 30.341,4.00031 30.341,4.00031 c 0,0 -0.2225,-0.14306 -0.3953,-0.12454 -0.0895,0.0096 -0.2382,0.12661 -0.2382,0.12661 0,0 -0.2541,-0.02799 -0.3737,0.00671 -0.1128,0.03277 -0.3007,0.18345 -0.3007,0.18345 0,0 -0.2103,-0.0211 -0.2956,0.02894 -0.113,0.06626 -0.181,0.19868 -0.2238,0.32246 -0.0228,0.06601 -0.0369,0.15182 -0.0454,0.24288 L 25.2457,5.15321 25.1811,6.00794 27.5247,5.7418 c -0.0474,0.13241 -0.0522,0.24448 0.0434,0.38602 0.2372,0.2769 0.6416,0.34676 0.9555,0.53227 0.2653,0.15684 0.7839,0.49093 0.7839,0.49093 0,0 0.2899,0.333 0.386,0.52916 0.1788,0.36515 0.2928,0.76842 0.3375,1.17254 0.0611,0.55202 -0.0998,1.66298 -0.0998,1.66298 0,0 -0.1144,-0.1432 -0.1922,-0.1871 -0.1449,-0.0818 -0.4832,-0.1266 -0.4832,-0.1266 0,0 -0.2068,-0.43448 -0.3705,-0.60514 -0.5312,-0.54415 -1.3164,-0.90163 -2.1394,-0.91364 -0.4384,0.0078 -0.9327,0.14176 -1.34,0.39688 0,0 -0.4978,-0.06628 -0.6692,-0.2279 C 24.572,8.6968 24.5575,8.46898 24.4804,8.22278 24.4173,8.02526 24.3672,7.69982 24.3672,7.69982 c 0,0 0.1682,-0.33255 0.3385,-0.51883 0.2682,-0.37067 0.3927,-0.74129 0.4754,-1.17305 L 25.2457,5.15321 C 25.2094,4.66217 25.064,4.21187 24.699,3.78223 24.1987,3.20722 23.5326,2.74979 22.6945,2.71512 22.6233,2.71232 22.5514,2.71184 22.4795,2.71459 Z" />
  </g>
  <g
     inkscape:label="Text BG"
     inkscape:groupmode="layer"
     id="layer1"
     style="display:inline"
     transform="translate(-0.07933578,-0.02329571)">
    <g
       id="g1065">
      <path
         d="m 7.4375878,22.069702 v 2.461893 q 0,0.373197 -0.2588295,0.6679 -0.2588305,0.294703 -0.6380456,0.338442 l -0.012036,0.0014 Q 6.1614995,25.581675 5.902669,25.34668 5.6378203,25.112378 5.6378203,24.739181 v -5.591929 q 0,-0.457467 0.3310611,-0.826714 0.331062,-0.369246 0.7885288,-0.42201 l 3.0096503,-0.347134 q 0.3310615,-0.03818 0.5296985,0.191715 0.132425,0.147247 0.132425,0.406077 v 0.25883 q 0,0.186598 -0.222715,0.386846 -0.2227139,0.200248 -0.4394085,0.213202 l -2.3294727,0.160335 v 1.745597 L 9.7911341,20.53419 q 0.2648499,-0.04258 0.4695059,0.144484 0.204656,0.187071 0.210676,0.457244 v 0.01204 q 0,0.282907 -0.216695,0.512557 -0.216696,0.229649 -0.4634869,0.246076 z"
         style="font-style:normal;font-variant:normal;font-weight:normal;font-stretch:normal;font-size:12.7px;line-height:0;font-family:Dyuthi;-inkscape-font-specification:Dyuthi;letter-spacing:-0.264583px;word-spacing:0px;display:inline;fill:#ffffff;fill-opacity:1;stroke:#ffffff;stroke-width:0.970671;stroke-miterlimit:4;stroke-dasharray:none;stroke-opacity:1;paint-order:fill markers stroke"
         id="path2861-1" />
      <path
         d="m 11.827665,24.879984 q -0.373197,0.04304 -0.638047,-0.185238 -0.258829,-0.234995 -0.258829,-0.608192 v -3.551387 q 0,-0.373197 0.264848,-0.668593 0.270869,-0.296092 0.632028,-0.337748 l 0.01204,-0.0014 q 0.361158,-0.04166 0.626008,0.192646 0.264848,0.234301 0.264848,0.607498 v 3.551387 q 0,0.373197 -0.264848,0.668593 -0.26485,0.295398 -0.626008,0.331035 z m 0.830663,-6.873542 q 0,0.391255 -0.276888,0.69406 -0.270868,0.302111 -0.650084,0.345849 -0.385235,0.04443 -0.650085,-0.195887 -0.264849,-0.240321 -0.270869,-0.630881 0,-0.391255 0.270869,-0.687346 0.26485,-0.301416 0.650085,-0.33983 0.373196,-0.04304 0.650084,0.183849 0.276888,0.232913 0.276888,0.630186 z"
         style="font-style:normal;font-variant:normal;font-weight:normal;font-stretch:normal;font-size:12.7px;line-height:0;font-family:Dyuthi;-inkscape-font-specification:Dyuthi;letter-spacing:-0.264583px;word-spacing:0px;display:inline;fill:#ffffff;fill-opacity:1;stroke:#ffffff;stroke-width:0.970671;stroke-miterlimit:4;stroke-dasharray:none;stroke-opacity:1;paint-order:fill markers stroke"
         id="path2863-1" />
      <path
         d="m 15.405136,23.173208 1.781713,-0.205503 q 0.656104,-0.07568 0.68018,0.360956 l 0.01204,0.233365 q 0.01204,0.293557 -0.126406,0.478065 -0.138444,0.17849 -0.553776,0.220375 l -3.35275,0.386707 q -0.25883,0.02985 -0.445428,-0.135223 -0.186598,-0.171095 -0.180579,-0.394503 0,-0.222715 0.132425,-0.424587 l 2.329469,-3.519104 -1.679385,0.193701 q -0.433389,0.04999 -0.595911,-0.358637 v -0.02408 q -0.108344,-0.300502 0.07825,-0.580854 0.186599,-0.286372 0.51766,-0.324557 l 3.148094,-0.363102 q 0.26485,-0.03055 0.463486,0.145179 0.186599,0.177115 0.186599,0.417887 0,0.240771 -0.132425,0.442644 z"
         style="font-style:normal;font-variant:normal;font-weight:normal;font-stretch:normal;font-size:12.7px;line-height:0;font-family:Dyuthi;-inkscape-font-specification:Dyuthi;letter-spacing:-0.264583px;word-spacing:0px;display:inline;fill:#ffffff;fill-opacity:1;stroke:#ffffff;stroke-width:0.970671;stroke-miterlimit:4;stroke-dasharray:none;stroke-opacity:1;paint-order:fill markers stroke"
         id="path2865-5" />
      <path
         d="m 18.362619,21.489786 q 0,0 0,-2.185005 0,-0.276888 0.240771,-0.545431 0.168541,-0.187979 0.595911,-0.231253 l 0.01806,-0.0021 q 0.42737,-0.04929 0.59591,0.09379 0.240772,0.213002 0.240772,0.48989 v 2.305392 q 0,0.812605 0.529699,1.00432 0.638045,0.239412 1.161725,-0.140012 0.523679,-0.373405 0.547756,-0.851706 v -2.49801 q 0,-0.355139 0.252811,-0.62507 0.174559,-0.188673 0.607949,-0.232642 l 0.01805,-0.0021 q 0.42737,-0.04929 0.595911,0.09379 0.240772,0.213001 0.240772,0.56814 v 4.213511 q 0,0.222714 -0.156502,0.403286 -0.150483,0.179877 -0.391255,0.207648 l -0.638045,0.07359 q -0.216695,0.02499 -0.385236,-0.130126 -0.16854,-0.161139 -0.162521,-0.354451 -2.160928,1.525333 -3.274499,0.245257 -0.638046,-0.739013 -0.638046,-1.900739 z"
         style="font-style:normal;font-variant:normal;font-weight:normal;font-stretch:normal;font-size:12.7px;line-height:0;font-family:Dyuthi;-inkscape-font-specification:Dyuthi;letter-spacing:-0.264583px;word-spacing:0px;display:inline;fill:#ffffff;fill-opacity:1;stroke:#ffffff;stroke-width:0.970671;stroke-miterlimit:4;stroke-dasharray:none;stroke-opacity:1;paint-order:fill markers stroke"
         id="path2867-9" />
      <path
         d="m 30.144397,20.016506 q 0,0 0.01204,1.954885 0,0.349119 -0.25281,0.62507 -0.240772,0.268543 -0.595911,0.309504 l -0.01805,0.0021 q -0.34912,0.04027 -0.595911,-0.17204 -0.240771,-0.213001 -0.240771,-0.56814 v -2.293353 q 0,-0.920954 -0.535719,-1.124012 -0.535717,-0.197041 -1.119589,0.231462 -0.589892,0.423176 -0.583872,0.87393 v 2.558202 q 0,0.361158 -0.252811,0.637109 -0.252811,0.269931 -0.607949,0.310893 l -0.006,6.94e-4 q -0.361158,0.04166 -0.607949,-0.170651 -0.240773,-0.213002 -0.240773,-0.580178 v -6.169783 q 0,-0.34912 0.240773,-0.635721 0.264848,-0.27132 0.613968,-0.311587 l 0.01204,-0.0014 q 0.349119,-0.04027 0.60795,0.170652 0.240772,0.213001 0.240772,0.56814 l 0.01806,2.12875 q 0.674161,-0.673669 1.276092,-0.809308 1.366381,-0.302062 2.004427,0.436951 0.632026,0.739707 0.632026,2.027838 z"
         style="font-style:normal;font-variant:normal;font-weight:normal;font-stretch:normal;font-size:12.7px;line-height:0;font-family:Dyuthi;-inkscape-font-specification:Dyuthi;letter-spacing:-0.264583px;word-spacing:0px;display:inline;fill:#ffffff;fill-opacity:1;stroke:#ffffff;stroke-width:0.970671;stroke-miterlimit:4;stroke-dasharray:none;stroke-opacity:1;paint-order:fill markers stroke"
         id="path2869-8" />
      <path
         d="m 32.211022,19.639697 q 0,0 0,0.397275 0,0.626006 0.331062,1.027231 0.331061,0.401224 0.800567,0.335032 0.276888,-0.0018 0.559795,-0.11874 0.571833,-0.264592 0.571833,-0.932735 0,0 0,-2.034523 -0.108347,-0.330604 -0.626007,-0.463514 -0.51766,-0.13893 -1.077455,0.190484 -0.559795,0.323397 -0.559795,1.599488 z m -0.878818,2.178023 q -0.770471,-0.72374 -0.770471,-1.873426 0,-1.155706 0.770471,-2.057178 0.77047,-0.901472 1.865984,-1.027829 0.920952,-0.106223 1.276091,0.665421 0,-0.264849 0.198637,-0.486397 0.17456,-0.194693 0.439409,-0.225241 l 0.463485,-0.05346 q 0.26485,-0.03055 0.451448,0.12249 0.186599,0.177115 0.186599,0.441964 v 4.394089 q 0,0.156502 -0.108347,0.265308 -0.102328,0.108112 -0.246791,0.124775 l -0.722317,0.08331 Q 34.9799,22.2096 34.775244,22.01651 q -0.204656,-0.19309 -0.367177,-0.198422 -0.162521,-0.0053 -0.306985,0.107636 -0.595911,0.453968 -0.902894,0.489375 -1.095514,0.126357 -1.865984,-0.597382 z"
         style="font-style:normal;font-variant:normal;font-weight:normal;font-stretch:normal;font-size:12.7px;line-height:0;font-family:Dyuthi;-inkscape-font-specification:Dyuthi;letter-spacing:-0.264583px;word-spacing:0px;display:inline;fill:#ffffff;fill-opacity:1;stroke:#ffffff;stroke-width:0.970671;stroke-miterlimit:4;stroke-dasharray:none;stroke-opacity:1;paint-order:fill markers stroke"
         id="path2871-4" />
    </g>
  </g>
  <g
     inkscape:groupmode="layer"
     id="layer3"
     inkscape:label="Text"
     style="display:inline"
     transform="translate(-0.07933578,-0.02329571)">
    <g
       id="g1057">
      <path
         id="path2861"
         style="font-style:normal;font-variant:normal;font-weight:normal;font-stretch:normal;font-size:12.7px;line-height:0;font-family:Dyuthi;-inkscape-font-specification:Dyuthi;letter-spacing:-0.264583px;word-spacing:0px;display:inline;fill:#27803e;fill-opacity:1;stroke:none;stroke-width:0.194134;stroke-miterlimit:4;stroke-dasharray:none;stroke-opacity:1;paint-order:fill markers stroke"
         d="m 7.4457848,22.057501 v 2.461893 q 0,0.373197 -0.2588295,0.6679 -0.2588305,0.294703 -0.6380456,0.338442 l -0.012036,0.0014 Q 6.1696965,25.569474 5.910866,25.334479 5.6460173,25.100177 5.6460173,24.72698 v -5.591929 q 0,-0.457467 0.3310611,-0.826714 0.331062,-0.369246 0.7885288,-0.42201 l 3.0096503,-0.347134 q 0.3310615,-0.03819 0.5296985,0.191715 0.132425,0.147247 0.132425,0.406077 v 0.25883 q 0,0.186598 -0.222715,0.386846 -0.2227139,0.200248 -0.4394085,0.213202 l -2.3294727,0.160335 v 1.745597 l 2.3535463,-0.379806 q 0.2648499,-0.04258 0.4695059,0.144484 0.204656,0.187071 0.210676,0.457244 v 0.01204 q 0,0.282907 -0.216695,0.512557 -0.216696,0.229649 -0.4634869,0.246076 z" />
      <path
         id="path2863"
         style="font-style:normal;font-variant:normal;font-weight:normal;font-stretch:normal;font-size:12.7px;line-height:0;font-family:Dyuthi;-inkscape-font-specification:Dyuthi;letter-spacing:-0.264583px;word-spacing:0px;display:inline;fill:#27803e;fill-opacity:1;stroke:none;stroke-width:0.194134;stroke-miterlimit:4;stroke-dasharray:none;stroke-opacity:1;paint-order:fill markers stroke"
         d="m 11.835862,24.867783 q -0.373197,0.04304 -0.638047,-0.185238 -0.258829,-0.234995 -0.258829,-0.608192 v -3.551387 q 0,-0.373197 0.264848,-0.668593 0.270869,-0.296092 0.632028,-0.337748 l 0.01204,-0.0014 q 0.361158,-0.04166 0.626008,0.192646 0.264848,0.234301 0.264848,0.607498 v 3.551387 q 0,0.373197 -0.264848,0.668593 -0.26485,0.295398 -0.626008,0.331035 z m 0.830663,-6.873542 q 0,0.391255 -0.276888,0.69406 -0.270868,0.302111 -0.650084,0.345849 -0.385235,0.04443 -0.650085,-0.195887 -0.264849,-0.240321 -0.270869,-0.630881 0,-0.391255 0.270869,-0.687346 0.26485,-0.301416 0.650085,-0.33983 0.373196,-0.04304 0.650084,0.183849 0.276888,0.232913 0.276888,0.630186 z" />
      <path
         id="path2865"
         style="font-style:normal;font-variant:normal;font-weight:normal;font-stretch:normal;font-size:12.7px;line-height:0;font-family:Dyuthi;-inkscape-font-specification:Dyuthi;letter-spacing:-0.264583px;word-spacing:0px;display:inline;fill:#27803e;fill-opacity:1;stroke:none;stroke-width:0.194134;stroke-miterlimit:4;stroke-dasharray:none;stroke-opacity:1;paint-order:fill markers stroke"
         d="m 15.413333,23.161007 1.781713,-0.205503 q 0.656104,-0.07568 0.68018,0.360956 l 0.01204,0.233365 q 0.01204,0.293557 -0.126406,0.478065 -0.138444,0.17849 -0.553776,0.220375 l -3.35275,0.386707 q -0.25883,0.02985 -0.445428,-0.135223 -0.186598,-0.171095 -0.180579,-0.394503 0,-0.222715 0.132425,-0.424587 l 2.329469,-3.519104 -1.679385,0.193701 q -0.433389,0.04999 -0.595911,-0.358637 v -0.02408 q -0.108344,-0.300502 0.07825,-0.580854 0.186599,-0.286372 0.51766,-0.324557 l 3.148094,-0.363102 q 0.26485,-0.03055 0.463486,0.145179 0.186599,0.177115 0.186599,0.417887 0,0.240771 -0.132425,0.442644 z" />
      <path
         id="path2867"
         style="font-style:normal;font-variant:normal;font-weight:normal;font-stretch:normal;font-size:12.7px;line-height:0;font-family:Dyuthi;-inkscape-font-specification:Dyuthi;letter-spacing:-0.264583px;word-spacing:0px;display:inline;fill:#27803e;fill-opacity:1;stroke:none;stroke-width:0.194134;stroke-miterlimit:4;stroke-dasharray:none;stroke-opacity:1;paint-order:fill markers stroke"
         d="m 18.370816,21.477585 q 0,0 0,-2.185005 0,-0.276888 0.240771,-0.545431 0.168541,-0.187979 0.595911,-0.231253 l 0.01806,-0.0021 q 0.42737,-0.04929 0.59591,0.09379 0.240772,0.213002 0.240772,0.48989 v 2.305392 q 0,0.812605 0.529699,1.00432 0.638045,0.239412 1.161725,-0.140012 0.523679,-0.373405 0.547756,-0.851706 v -2.49801 q 0,-0.355139 0.252811,-0.62507 0.174559,-0.188673 0.607949,-0.232642 l 0.01805,-0.0021 q 0.42737,-0.04929 0.595911,0.09379 0.240772,0.213001 0.240772,0.56814 v 4.213511 q 0,0.222714 -0.156502,0.403286 -0.150483,0.179877 -0.391255,0.207648 l -0.638045,0.07359 q -0.216695,0.02499 -0.385236,-0.130126 -0.16854,-0.161139 -0.162521,-0.354451 -2.160928,1.525333 -3.274499,0.245257 -0.638046,-0.739013 -0.638046,-1.900739 z" />
      <path
         id="path2869"
         style="font-style:normal;font-variant:normal;font-weight:normal;font-stretch:normal;font-size:12.7px;line-height:0;font-family:Dyuthi;-inkscape-font-specification:Dyuthi;letter-spacing:-0.264583px;word-spacing:0px;display:inline;fill:#27803e;fill-opacity:1;stroke:none;stroke-width:0.194134;stroke-miterlimit:4;stroke-dasharray:none;stroke-opacity:1;paint-order:fill markers stroke"
         d="m 30.152594,20.004305 q 0,0 0.01204,1.954885 0,0.349119 -0.25281,0.62507 -0.240772,0.268543 -0.595911,0.309504 l -0.01805,0.0021 q -0.34912,0.04027 -0.595911,-0.17204 -0.240771,-0.213001 -0.240771,-0.56814 v -2.293353 q 0,-0.920954 -0.535719,-1.124012 -0.535717,-0.197041 -1.119589,0.231462 -0.589892,0.423176 -0.583872,0.87393 v 2.558202 q 0,0.361158 -0.252811,0.637109 -0.252811,0.269931 -0.607949,0.310893 l -0.006,6.94e-4 q -0.361158,0.04166 -0.607949,-0.170651 -0.240773,-0.213002 -0.240773,-0.580178 v -6.1698 q 0,-0.34912 0.240773,-0.635721 0.264848,-0.27132 0.613968,-0.311587 l 0.01204,-0.0014 q 0.349119,-0.04027 0.60795,0.170652 0.240772,0.213001 0.240772,0.56814 l 0.01806,2.12875 q 0.674161,-0.673669 1.276092,-0.809308 1.366381,-0.302062 2.004427,0.436951 0.632026,0.739707 0.632026,2.027838 z" />
      <path
         id="path2871"
         style="font-style:normal;font-variant:normal;font-weight:normal;font-stretch:normal;font-size:12.7px;line-height:0;font-family:Dyuthi;-inkscape-font-specification:Dyuthi;letter-spacing:-0.264583px;word-spacing:0px;display:inline;fill:#27803e;fill-opacity:1;stroke:none;stroke-width:0.194134;stroke-miterlimit:4;stroke-dasharray:none;stroke-opacity:1;paint-order:fill markers stroke"
         d="m 32.219219,19.627496 q 0,0 0,0.397275 0,0.626006 0.331062,1.027231 0.331061,0.401224 0.800567,0.335032 0.276888,-0.0018 0.559795,-0.11874 0.571833,-0.264592 0.571833,-0.932735 0,0 0,-2.034523 -0.108347,-0.330604 -0.626007,-0.463514 -0.51766,-0.13893 -1.077455,0.190484 -0.559795,0.323397 -0.559795,1.599488 z m -0.878818,2.178023 q -0.770471,-0.72374 -0.770471,-1.873426 0,-1.155706 0.770471,-2.057178 0.77047,-0.901472 1.865984,-1.027829 0.920952,-0.106223 1.276091,0.665421 0,-0.264849 0.198637,-0.486397 0.17456,-0.194693 0.439409,-0.225241 l 0.463485,-0.05346 q 0.26485,-0.03055 0.451448,0.12249 0.186599,0.177115 0.186599,0.441964 v 4.394089 q 0,0.156502 -0.108347,0.265308 -0.102328,0.108112 -0.246791,0.124775 l -0.722317,0.08331 q -0.156502,0.01805 -0.361158,-0.175039 -0.204656,-0.19309 -0.367177,-0.198422 -0.162521,-0.0053 -0.306985,0.107636 -0.595911,0.453968 -0.902894,0.489375 -1.095514,0.126357 -1.865984,-0.597382 z" />
    </g>
  </g>
</svg>
